<?xml version="1.0" encoding="UTF-8" standalone="no"?>
<svg id="svg2" xmlns:rdf="http://www.w3.org/1999/02/22-rdf-syntax-ns#" xmlns="http://www.w3.org/2000/svg" viewBox="0 0 32 32" height="100%" width="100%" version="1.0" xmlns:cc="http://creativecommons.org/ns#" xmlns:xlink="http://www.w3.org/1999/xlink" xmlns:dc="http://purl.org/dc/elements/1.1/">
 <defs id="defs4">
  <linearGradient id="linearGradient3295" x1="10" gradientUnits="userSpaceOnUse" y1="13.062" gradientTransform="translate(123.42857,334.07648)" x2="4.4375" y2="13">
   <stop id="stop3246" stop-color="#fce94f" offset="0"/>
   <stop id="stop3252" stop-color="#fffce0" offset="0.5"/>
   <stop id="stop3248" stop-color="#fceb50" offset="1"/>
  </linearGradient>
  <linearGradient id="linearGradient3297" x1="18.749" gradientUnits="userSpaceOnUse" y1="13.062" gradientTransform="matrix(0.9294606,0,0,0.9470405,124.13397,334.79144)" x2="14.66" y2="13.047">
   <stop id="stop3262" stop-color="#000" offset="0"/>
   <stop id="stop3264" stop-color="#000" stop-opacity="0" offset="1"/>
  </linearGradient>
  <radialGradient id="radialGradient4307" gradientUnits="userSpaceOnUse" cy="9.7938" cx="9.7049" gradientTransform="matrix(0.8203125,0.8203125,-1.1718749,1.171875,13.172282,-9.7818204)" r="8">
   <stop id="stop7626" stop-color="#FFF" offset="0"/>
   <stop id="stop7628" stop-color="#a1d9da" stop-opacity="0.0173913" offset="0.29"/>
   <stop id="stop7630" stop-color="#43b3b6" stop-opacity="0.56521738" offset="1"/>
  </radialGradient>
  <linearGradient id="linearGradient4345" x1="361.69" gradientUnits="userSpaceOnUse" y1="154.07" gradientTransform="matrix(0.9817196,-2.3111934e-8,-2.3111934e-8,0.9817196,3.6311595,-3.9427562)" x2="361.77" y2="158.32">
   <stop id="stop4341" stop-color="#c9b188" offset="0"/>
   <stop id="stop7632" stop-color="#745c34" offset="0.5"/>
   <stop id="stop4343" stop-color="#2f2424" offset="1"/>
  </linearGradient>
  <mask id="mask7610" maskUnits="userSpaceOnUse">
   <path id="path7612" style="stroke-dasharray:none;" d="M20,12.5a7.5,7.5,0,1,1,-15,0,7.5,7.5,0,1,1,15,0z" stroke-dashoffset="0" transform="matrix(1.2187731,0,0,1.2187731,124.42745,321.67955)" stroke="#000" stroke-linecap="square" stroke-miterlimit="4" stroke-width="1" fill="#FFF"/>
  </mask>
 </defs>
 <metadata id="metadata7">
  <rdf:RDF>
   <cc:Work rdf:about="">
    <dc:format>image/svg+xml</dc:format>
    <dc:type rdf:resource="http://purl.org/dc/dcmitype/StillImage"/>
    <cc:license rdf:resource="http://creativecommons.org/licenses/publicdomain/"/>
    <dc:title/>
    <dc:date>2008-05-05</dc:date>
    <dc:creator>
     <cc:Agent>
      <dc:title>Peer Sommerlund</dc:title>
     </cc:Agent>
    </dc:creator>
    <dc:description>Icon for TortoiseHg dialog "Datamine"</dc:description>
   </cc:Work>
   <cc:License rdf:about="http://creativecommons.org/licenses/publicdomain/">
    <cc:permits rdf:resource="http://creativecommons.org/ns#Reproduction"/>
    <cc:permits rdf:resource="http://creativecommons.org/ns#Distribution"/>
    <cc:permits rdf:resource="http://creativecommons.org/ns#DerivativeWorks"/>
   </cc:License>
  </rdf:RDF>
 </metadata>
 <g id="layer1" transform="translate(-123.42857,-334.07648)">
  <g id="g3287" transform="matrix(0.63175,0,0,0.63175,46.712821,136.49666)">
   <path id="path3289" style="stroke-dasharray:none;" d="M125.9,337.55v17.53c0,1.39,3.38,2.53,7.53,2.53s7.53-1.14,7.53-2.53v-17.53h-15.06z" stroke-dashoffset="0" stroke="#c4a000" stroke-linecap="square" stroke-miterlimit="4" stroke-width="0.96853024" fill="url(#linearGradient3295)"/>
   <path id="path3291" opacity="0.52999998" fill="url(#linearGradient3297)" d="M126.43,338.08v16.6c0,1.31,3.14,2.4,7,2.4,4.43,0,6.95-1,7-2.05v-16.95h-14z"/>
   <path id="path3293" style="stroke-dasharray:none;" d="m17.678,2.4783c0,1.4645-3.4033,2.6517-7.6014,2.6517s-7.6014-1.1872-7.6014-2.6517,3.4033-2.6517,7.6014-2.6517,7.6014,1.1872,7.6014,2.6517z" stroke-dashoffset="0" transform="matrix(0.9887307,0,0,0.9487426,123.46585,334.72522)" stroke="#c4a000" stroke-linecap="square" stroke-miterlimit="4" stroke-width="1" fill="#fff08b"/>
  </g>
  <g id="g4309" mask="url(#mask7610)" transform="matrix(0.8751971,0,0,0.8751971,14.230028,52.243471)">
   <path id="path4311" style="stroke-dasharray:none;" d="M125.9,337.55v17.53c0,1.39,3.38,2.53,7.53,2.53s7.53-1.14,7.53-2.53v-17.53h-15.06z" stroke-dashoffset="0" stroke="#c4a000" stroke-linecap="square" stroke-miterlimit="4" stroke-width="0.96853024" fill="url(#linearGradient3295)"/>
   <path id="path4313" opacity="0.52999998" d="M126.43,338.08v16.6c0,1.31,3.14,2.4,7,2.4,4.43,0,6.95-1,7-2.05v-16.95h-14z" fill="url(#linearGradient3297)"/>
   <path id="path4315" style="stroke-dasharray:none;" d="m17.678,2.4783c0,1.4645-3.4033,2.6517-7.6014,2.6517s-7.6014-1.1872-7.6014-2.6517,3.4033-2.6517,7.6014-2.6517,7.6014,1.1872,7.6014,2.6517z" stroke-dashoffset="0" transform="matrix(0.9887307,0,0,0.9487426,123.46585,334.72522)" stroke="#c4a000" stroke-linecap="square" stroke-miterlimit="4" stroke-width="1" fill="#fff08b"/>
  </g>
  <path id="path3527" style="stroke-dasharray:none;" d="M20,12.5c0,4.142-3.358,7.5-7.5,7.5-4.1421,0-7.5-3.358-7.5-7.5,0-4.1421,3.3579-7.5,7.5-7.5,4.142,0,7.5,3.3579,7.5,7.5z" stroke-dashoffset="0" transform="matrix(1.0666667,0,0,1.0666667,123.12857,333.77648)" stroke="#2e3436" stroke-linecap="square" stroke-miterlimit="4" stroke-width="0.93749997" fill="url(#radialGradient4307)"/>
  <rect id="rect4329" ry="1.2975" style="stroke-dasharray:none;" transform="matrix(0.706585,0.7076282,-0.706585,0.7076282,0,0)" stroke-dashoffset="0" height="5.8312" width="15.379" stroke="#2e3436" stroke-linecap="square" stroke-miterlimit="4" y="145.77" x="350.35" stroke-width="0.98204" fill="url(#linearGradient4345)"/>
 </g>
</svg>
