<?xml version="1.0" encoding="UTF-8" standalone="no"?>
<!-- Created with Inkscape (http://www.inkscape.org/) -->
<svg
   xmlns:dc="http://purl.org/dc/elements/1.1/"
   xmlns:cc="http://creativecommons.org/ns#"
   xmlns:rdf="http://www.w3.org/1999/02/22-rdf-syntax-ns#"
   xmlns:svg="http://www.w3.org/2000/svg"
   xmlns="http://www.w3.org/2000/svg"
   xmlns:xlink="http://www.w3.org/1999/xlink"
   xmlns:sodipodi="http://sodipodi.sourceforge.net/DTD/sodipodi-0.dtd"
   xmlns:inkscape="http://www.inkscape.org/namespaces/inkscape"
   width="32"
   height="32"
   id="svg2"
   sodipodi:version="0.32"
   inkscape:version="0.46"
   version="1.0"
   inkscape:export-filename="E:\src\mercurial\thg\thg-init-icon\icons\tortoise\init-32.png"
   inkscape:export-xdpi="90"
   inkscape:export-ydpi="90"
   sodipodi:docname="init.svg"
   inkscape:output_extension="org.inkscape.output.svg.inkscape"
   style="display:inline">
  <defs
     id="defs4">
    <linearGradient
       id="linearGradient3326">
      <stop
         style="stop-color:#fffffb;stop-opacity:1;"
         offset="0"
         id="stop3328" />
      <stop
         id="stop3330"
         offset="0.22769117"
         style="stop-color:#fff8d3;stop-opacity:0.96862745;" />
      <stop
         id="stop3332"
         offset="0.37090236"
         style="stop-color:#ffdf45;stop-opacity:0.69565219;" />
      <stop
         style="stop-color:#f76424;stop-opacity:0.51304346;"
         offset="0.58350569"
         id="stop3334" />
      <stop
         style="stop-color:#f00404;stop-opacity:0;"
         offset="1"
         id="stop3336" />
    </linearGradient>
    <linearGradient
       id="linearGradient3258">
      <stop
         style="stop-color:#000000;stop-opacity:1;"
         offset="0"
         id="stop3262" />
      <stop
         id="stop3264"
         offset="1"
         style="stop-color:#000000;stop-opacity:0;" />
    </linearGradient>
    <linearGradient
       id="linearGradient3244">
      <stop
         style="stop-color:#fce94f;stop-opacity:1;"
         offset="0"
         id="stop3246" />
      <stop
         id="stop3252"
         offset="0.5"
         style="stop-color:#fffce0;stop-opacity:1;" />
      <stop
         style="stop-color:#fceb50;stop-opacity:1;"
         offset="1"
         id="stop3248" />
    </linearGradient>
    <linearGradient
       inkscape:collect="always"
       xlink:href="#linearGradient3258"
       id="linearGradient3894"
       gradientUnits="userSpaceOnUse"
       gradientTransform="matrix(0.9294606,0,0,0.9470405,138.14948,336.79144)"
       x1="18.748869"
       y1="13.0625"
       x2="14.660361"
       y2="13.046666" />
    <linearGradient
       inkscape:collect="always"
       xlink:href="#linearGradient3244"
       id="linearGradient3897"
       gradientUnits="userSpaceOnUse"
       gradientTransform="matrix(0.9980258,0,0,0.9992914,137.4483,336.09379)"
       x1="10"
       y1="13.0625"
       x2="4.4375"
       y2="13" />
    <radialGradient
       inkscape:collect="always"
       xlink:href="#linearGradient3326"
       id="radialGradient3221"
       cx="17.964945"
       cy="2.0140991"
       fx="17.964945"
       fy="2.0140991"
       r="7.9365282"
       gradientTransform="matrix(0.7559981,-4.9233333e-8,4.8784094e-8,0.7490998,4.4185357,0.4912398)"
       gradientUnits="userSpaceOnUse" />
  </defs>
  <sodipodi:namedview
     id="base"
     pagecolor="#ffffff"
     bordercolor="#666666"
     borderopacity="1.0"
     gridtolerance="10000"
     guidetolerance="10"
     objecttolerance="10"
     inkscape:pageopacity="0.0"
     inkscape:pageshadow="2"
     inkscape:zoom="19.15625"
     inkscape:cx="15.582382"
     inkscape:cy="16.088598"
     inkscape:document-units="px"
     inkscape:current-layer="layer4"
     inkscape:grid-points="false"
     showgrid="true"
     inkscape:window-width="1157"
     inkscape:window-height="793"
     inkscape:window-x="161"
     inkscape:window-y="12"
     inkscape:snap-bbox="true">
    <inkscape:grid
       id="GridFromPre046Settings"
       type="xygrid"
       originx="0px"
       originy="0px"
       spacingx="0.5px"
       spacingy="0.5px"
       color="#0000ff"
       empcolor="#0000ff"
       opacity="0.2"
       empopacity="0.4"
       empspacing="4"
       visible="true"
       enabled="true" />
  </sodipodi:namedview>
  <metadata
     id="metadata7">
    <rdf:RDF>
      <cc:Work
         rdf:about="">
        <dc:format>image/svg+xml</dc:format>
        <dc:type
           rdf:resource="http://purl.org/dc/dcmitype/StillImage" />
        <cc:license
           rdf:resource="" />
        <dc:title>Initialize</dc:title>
        <dc:date>2008-12-27</dc:date>
        <dc:creator>
          <cc:Agent>
            <dc:title>Peer Sommerlund</dc:title>
          </cc:Agent>
        </dc:creator>
        <dc:description>Icon for TortoiseHg dialog &quot;Init&quot;</dc:description>
      </cc:Work>
    </rdf:RDF>
  </metadata>
  <g
     inkscape:label="Cylinder"
     inkscape:groupmode="layer"
     id="layer1"
     transform="translate(-123.42857,-334.07648)"
     style="display:inline">
    <g
       id="g3899"
       transform="translate(-8,1.9999999)">
      <path
         sodipodi:nodetypes="ccsccc"
         id="path3289"
         d="M 139.92857,339.57648 C 139.93011,345.33746 139.92857,351.55615 139.92857,357.07648 C 139.92857,358.57648 143.28806,359.57648 147.42857,359.57648 C 151.56906,359.57648 154.92857,358.57648 154.92857,357.07648 L 154.92857,339.57648 L 139.92857,339.57648 z"
         style="fill:url(#linearGradient3897);fill-opacity:1;stroke:#c4a000;stroke-width:1;stroke-linecap:square;stroke-miterlimit:4;stroke-dasharray:none;stroke-dashoffset:0;stroke-opacity:1" />
      <path
         sodipodi:nodetypes="ccsccc"
         id="path3291"
         d="M 140.44409,340.07648 C 140.44553,345.53623 140.44409,351.4476 140.44409,356.67929 C 140.44409,357.99443 143.58804,359.07648 147.44409,359.07648 C 151.87465,359.07648 154.39989,358.08282 154.44409,357.03284 L 154.44409,340.07648 L 140.44409,340.07648 z"
         style="opacity:0.52999998;fill:url(#linearGradient3894);fill-opacity:1;stroke:none;stroke-width:0.96853024;stroke-linecap:square;stroke-miterlimit:4;stroke-dasharray:none;stroke-dashoffset:0;stroke-opacity:1" />
      <path
         transform="matrix(0.9907791,0,0,0.9487422,137.44521,336.72522)"
         d="M 17.646068,2.4782917 A 7.5697956,2.6350677 0 1 1 2.5064764,2.4782917 A 7.5697956,2.6350677 0 1 1 17.646068,2.4782917 z"
         sodipodi:ry="2.6350677"
         sodipodi:rx="7.5697956"
         sodipodi:cy="2.4782917"
         sodipodi:cx="10.076272"
         id="path3293"
         style="fill:#fff08b;fill-opacity:1;stroke:#c4a000;stroke-width:1.03142452;stroke-linecap:square;stroke-miterlimit:4;stroke-dasharray:none;stroke-dashoffset:0;stroke-opacity:1"
         sodipodi:type="arc" />
    </g>
  </g>
  <g
     inkscape:groupmode="layer"
     id="layer4"
     inkscape:label="Star"
     style="display:inline">
    <path
       sodipodi:type="star"
       style="opacity:1;fill:url(#radialGradient3221);fill-opacity:1;stroke:none;stroke-width:2;stroke-linecap:square;stroke-linejoin:round;stroke-miterlimit:4;stroke-dasharray:none;stroke-dashoffset:0;stroke-opacity:1"
       id="path3213"
       sodipodi:sides="16"
       sodipodi:cx="18"
       sodipodi:cy="2"
       sodipodi:r1="6.936974"
       sodipodi:r2="4.5240145"
       sodipodi:arg1="1.555139"
       sodipodi:arg2="1.7514885"
       inkscape:flatsided="false"
       inkscape:rounded="0.07"
       inkscape:randomized="0"
       d="M 18.10861,8.9361238 C 17.923055,8.9390293 17.369544,6.4837117 17.186987,6.4503614 C 17.00443,6.4170111 15.618546,8.5180306 15.446003,8.449706 C 15.27346,8.3813815 15.701692,5.9011443 15.545794,5.8004712 C 15.389897,5.6997981 13.305481,7.1105319 13.172219,6.981379 C 13.038957,6.8522262 14.383737,4.724663 14.278232,4.5719937 C 14.172727,4.4193244 11.707114,4.925001 11.63342,4.7546822 C 11.559727,4.5843635 13.616325,3.1333765 13.577276,2.9519535 C 13.538226,2.7705305 11.066782,2.2941653 11.063876,2.10861 C 11.060971,1.9230548 13.516288,1.3695437 13.549639,1.186987 C 13.582989,1.0044303 11.481969,-0.38145449 11.550294,-0.55399706 C 11.618618,-0.72653962 14.098856,-0.29830791 14.199529,-0.45420565 C 14.300202,-0.61010341 12.889468,-2.6945194 13.018621,-2.8277813 C 13.147774,-2.9610431 15.275337,-1.6162629 15.428006,-1.7217677 C 15.580676,-1.8272726 15.074999,-4.2928862 15.245318,-4.3665795 C 15.415637,-4.4402728 16.866624,-2.3836747 17.048046,-2.4227244 C 17.229469,-2.4617742 17.705835,-4.9332182 17.89139,-4.9361238 C 18.076945,-4.9390293 18.630456,-2.4837117 18.813013,-2.4503614 C 18.99557,-2.4170111 20.381454,-4.5180306 20.553997,-4.449706 C 20.72654,-4.3813815 20.298308,-1.9011443 20.454206,-1.8004712 C 20.610103,-1.6997981 22.694519,-3.1105319 22.827781,-2.981379 C 22.961043,-2.8522262 21.616263,-0.72466303 21.721768,-0.57199374 C 21.827273,-0.41932444 24.292886,-0.925001 24.36658,-0.75468223 C 24.440273,-0.58436348 22.383675,0.86662351 22.422724,1.0480465 C 22.461774,1.2294695 24.933218,1.7058347 24.936124,1.89139 C 24.939029,2.0769452 22.483712,2.6304563 22.450361,2.813013 C 22.417011,2.9955697 24.518031,4.3814545 24.449706,4.5539971 C 24.381382,4.7265396 21.901144,4.2983079 21.800471,4.4542057 C 21.699798,4.6101034 23.110532,6.6945194 22.981379,6.8277813 C 22.852226,6.9610431 20.724663,5.6162629 20.571994,5.7217677 C 20.419324,5.8272726 20.925001,8.2928862 20.754682,8.3665795 C 20.584363,8.4402728 19.133376,6.3836747 18.951954,6.4227244 C 18.770531,6.4617742 18.294165,8.9332182 18.10861,8.9361238 z"
       transform="matrix(1.0092089,0,0,1.0092088,4.8342403,4.9815823)" />
  </g>
</svg>
