<?xml version="1.0" encoding="UTF-8" standalone="no"?>
<svg
   xmlns:dc="http://purl.org/dc/elements/1.1/"
   xmlns:cc="http://creativecommons.org/ns#"
   xmlns:rdf="http://www.w3.org/1999/02/22-rdf-syntax-ns#"
   xmlns:svg="http://www.w3.org/2000/svg"
   xmlns="http://www.w3.org/2000/svg"
   xmlns:xlink="http://www.w3.org/1999/xlink"
   xmlns:sodipodi="http://sodipodi.sourceforge.net/DTD/sodipodi-0.dtd"
   xmlns:inkscape="http://www.inkscape.org/namespaces/inkscape"
   version="1.0"
   width="128"
   height="128"
   id="svg2"
   sodipodi:version="0.32"
   inkscape:version="0.48.0 r9654"
   sodipodi:docname="hg-purge.svg"
   inkscape:output_extension="org.inkscape.output.svg.inkscape"
   inkscape:export-filename="C:\joanna\Gfx\drawings_vector\admin\thumbs\Andy_-_Trash_Can.png"
   inkscape:export-xdpi="140.625"
   inkscape:export-ydpi="140.625">
  <metadata
     id="metadata90">
    <rdf:RDF>
      <cc:Work
         rdf:about="">
        <dc:format>image/svg+xml</dc:format>
        <dc:type
           rdf:resource="http://purl.org/dc/dcmitype/StillImage" />
        <dc:title></dc:title>
      </cc:Work>
    </rdf:RDF>
  </metadata>
  <sodipodi:namedview
     inkscape:window-height="738"
     inkscape:window-width="1280"
     inkscape:pageshadow="2"
     inkscape:pageopacity="0.0"
     guidetolerance="10.0"
     gridtolerance="10.0"
     objecttolerance="10.0"
     borderopacity="1.0"
     bordercolor="#666666"
     pagecolor="#ffffff"
     id="base"
     showgrid="false"
     inkscape:zoom="3.375"
     inkscape:cx="17.777778"
     inkscape:cy="59.205806"
     inkscape:window-x="-8"
     inkscape:window-y="-8"
     inkscape:current-layer="svg2"
     inkscape:window-maximized="1" />
  <defs
     id="defs4">
    <linearGradient
       x1="76"
       y1="105.3"
       x2="76"
       y2="86"
       id="linearGradient2299"
       xlink:href="#BlackTransparent"
       gradientUnits="userSpaceOnUse"
       gradientTransform="matrix(0.9,0,0,0.9,3.5,9)" />
    <linearGradient
       id="BlackTransparent">
      <stop
         style="stop-color: black; stop-opacity: 1;"
         offset="0"
         id="stop8" />
      <stop
         style="stop-color: black; stop-opacity: 0;"
         offset="1"
         id="stop10" />
    </linearGradient>
    <linearGradient
       id="WhiteTransparent">
      <stop
         style="stop-color: white; stop-opacity: 1;"
         offset="0"
         id="stop13" />
      <stop
         style="stop-color: white; stop-opacity: 0;"
         offset="1"
         id="stop15" />
    </linearGradient>
    <linearGradient
       id="linearGradient6182"
       x1="0"
       y1="21"
       x2="0"
       y2="30"
       xlink:href="#WhiteTransparent"
       gradientUnits="userSpaceOnUse" />
    <linearGradient
       id="linearGradient6185"
       x1="0"
       y1="71"
       x2="0"
       y2="59"
       xlink:href="#WhiteTransparent"
       gradientUnits="userSpaceOnUse" />
    <linearGradient
       id="linearGradient6188"
       x1="0"
       y1="52"
       x2="0"
       y2="16"
       xlink:href="#WhiteTransparent"
       gradientUnits="userSpaceOnUse" />
    <linearGradient
       id="linearGradient6192"
       x1="0"
       y1="35"
       x2="0"
       y2="48"
       xlink:href="#BlackTransparent"
       gradientUnits="userSpaceOnUse" />
    <linearGradient
       id="linearGradient6197"
       x1="13"
       y1="56"
       x2="13"
       y2="102"
       xlink:href="#BlackTransparent"
       gradientUnits="userSpaceOnUse" />
    <linearGradient
       id="linearGradient6200"
       x1="0"
       y1="78"
       x2="0"
       y2="13.5"
       xlink:href="#WhiteTransparent"
       gradientUnits="userSpaceOnUse" />
    <linearGradient
       id="linearGradient6206"
       x1="0"
       y1="66"
       x2="0"
       y2="58"
       xlink:href="#WhiteTransparent"
       gradientUnits="userSpaceOnUse" />
    <linearGradient
       id="linearGradient6213"
       x1="22"
       y1="0"
       x2="46"
       y2="0"
       xlink:href="#WhiteTransparent"
       gradientUnits="userSpaceOnUse" />
    <linearGradient
       id="linearGradient6216"
       x1="96"
       y1="0"
       x2="60"
       y2="0"
       xlink:href="#WhiteTransparent"
       gradientUnits="userSpaceOnUse" />
    <clipPath
       clipPathUnits="userSpaceOnUse"
       id="clipoutline1">
      <path
         id="outline1"
         d="M 60.3,27.4 C 40.4,27.4 24.4,35 24.4,44 L 24.4,100.8 C 24.4,110 40.4,117.3 60.3,117.3 C 80,117.3 96,110 96,100.8 L 96,44 C 96,35 80,27.4 60.3,27.4 z " />
    </clipPath>
    <clipPath
       clipPathUnits="userSpaceOnUse"
       id="clipoutline2">
      <path
         id="outline2"
         d="M 59.6,18 C 36.3,18 17.6,27.8 17,39.7 L 17,49.5 C 17,62 36.5,72 60.7,72 C 85,72 104.4,62 104.4,49.5 L 104.4,39.8 C 104.4,27.6 84.6,18 60.7,18 C 60.4,18 60,18 59.6,18 z " />
    </clipPath>
    <filter
       id="ShadowBlur"
       filterUnits="userSpaceOnUse"
       x="0"
       y="0">
      <feGaussianBlur
         in="SourceAlpha"
         stdDeviation="3"
         result="blur"
         id="feGaussianBlur31" />
    </filter>
    <linearGradient
       inkscape:collect="always"
       xlink:href="#BlackTransparent"
       id="linearGradient3243"
       gradientUnits="userSpaceOnUse"
       gradientTransform="matrix(0.9,0,0,0.9,3.5,9)"
       x1="76"
       y1="105.3"
       x2="76"
       y2="86" />
    <linearGradient
       inkscape:collect="always"
       xlink:href="#BlackTransparent"
       id="linearGradient3249"
       gradientUnits="userSpaceOnUse"
       x1="0"
       y1="35"
       x2="0"
       y2="48" />
    <linearGradient
       inkscape:collect="always"
       xlink:href="#WhiteTransparent"
       id="linearGradient3251"
       gradientUnits="userSpaceOnUse"
       x1="0"
       y1="21"
       x2="0"
       y2="30" />
    <linearGradient
       inkscape:collect="always"
       xlink:href="#WhiteTransparent"
       id="linearGradient3253"
       gradientUnits="userSpaceOnUse"
       x1="96"
       y1="0"
       x2="60"
       y2="0" />
    <linearGradient
       inkscape:collect="always"
       xlink:href="#WhiteTransparent"
       id="linearGradient3255"
       gradientUnits="userSpaceOnUse"
       x1="22"
       y1="0"
       x2="46"
       y2="0" />
    <linearGradient
       inkscape:collect="always"
       xlink:href="#BlackTransparent"
       id="linearGradient3257"
       gradientUnits="userSpaceOnUse"
       x1="13"
       y1="56"
       x2="13"
       y2="102" />
    <linearGradient
       inkscape:collect="always"
       xlink:href="#WhiteTransparent"
       id="linearGradient3265"
       gradientUnits="userSpaceOnUse"
       x1="0"
       y1="71"
       x2="0"
       y2="59"
       gradientTransform="matrix(1,0,0,1.0184734,3.5555556,-12.879059)" />
    <linearGradient
       inkscape:collect="always"
       xlink:href="#WhiteTransparent"
       id="linearGradient3268"
       gradientUnits="userSpaceOnUse"
       x1="0"
       y1="52"
       x2="0"
       y2="16"
       gradientTransform="matrix(1,0,0,1.0184734,3.5555556,-12.879059)" />
    <linearGradient
       inkscape:collect="always"
       xlink:href="#BlackTransparent"
       id="linearGradient3288"
       gradientUnits="userSpaceOnUse"
       x1="13"
       y1="56"
       x2="13"
       y2="102"
       gradientTransform="matrix(1,0,0,1.2350944,3.5555556,-22.898367)" />
    <linearGradient
       inkscape:collect="always"
       xlink:href="#WhiteTransparent"
       id="linearGradient3291"
       gradientUnits="userSpaceOnUse"
       x1="22"
       y1="0"
       x2="46"
       y2="0"
       gradientTransform="matrix(1,0,0,1.2350944,3.5555556,-22.898367)" />
    <linearGradient
       inkscape:collect="always"
       xlink:href="#WhiteTransparent"
       id="linearGradient3294"
       gradientUnits="userSpaceOnUse"
       x1="96"
       y1="0"
       x2="60"
       y2="0"
       gradientTransform="matrix(1,0,0,1.2350944,3.5555556,-22.898367)" />
    <linearGradient
       inkscape:collect="always"
       xlink:href="#BlackTransparent"
       id="linearGradient3302"
       gradientUnits="userSpaceOnUse"
       gradientTransform="matrix(0.9,0,0,1.4031188,7.0555556,-43.203391)"
       x1="76"
       y1="105.3"
       x2="76"
       y2="86" />
  </defs>
  <style
     type="text/css"
     id="style33">
	.specularity {opacity:0.5;}
	.high-specularity {opacity:0.75;}
	.low-specularity {opacity:0.25;}
	.full-specularity {opacity:1;}
	.shade{opacity:0.5;}
	.black {fill:#000000;}
	.white {fill:#ffffff;}
	.outline-big {stroke-width:16;stroke:none;opacity:0.;fill:none;}
	.outline-small {stroke-width:8px;stroke:black;opacity:1;fill:none;}
	.stroke-highlight {fill:none;stroke:white;opacity:0.3;stroke-width:9px;stroke-linejoin:round;}
				.base-shadow 	{fill:black;opacity:0.4;}
	.stroke-aluminium5	{stroke:#555753;}
	.aluminium1	{fill:#eeeeec;}
	.aluminium2	{fill:#d3d7cf;}
	.aluminium3	{fill:#babdb6;}
	.aluminium4	{fill:#888a85;}
	.aluminium5	{fill:#555753;}
	.aluminium6	{fill:#2e3436;}
	</style>
  <g
     id="g41"
     transform="matrix(1,0,0,1.2350944,3.5555556,-22.898367)">
    <use
       class="outline-big"
       xlink:href="#outline1"
       id="use43"
       x="0"
       y="0"
       width="128"
       height="128" />
    <use
       class="outline-small stroke-aluminium5"
       xlink:href="#outline1"
       id="use45"
       style="fill:#555753;stroke:#555753;stroke-width:8px"
       x="0"
       y="0"
       width="128"
       height="128" />
  </g>
  <path
     d="m 63.955556,14.154465 c -19.8,0 -35.7,9.386717 -35.7,20.626076 l 0,66.695099 c 0,11.23936 15.9,20.13204 35.7,20.13204 19.6,0 35.6,-8.89268 35.6,-20.13204 l 0,-66.695099 c 0,-11.239359 -16,-20.626076 -35.6,-20.626076 z"
     style="fill:#888a85"
     id="path47"
     inkscape:connector-curvature="0" />
  <path
     d="m 63.955556,11.190238 c -19.9,0 -19.9,110.417442 0,110.417442 19.6,0 35.6,-8.76917 35.6,-20.13204 l 0,-70.029853 c 0,-11.11585 -16,-20.255549 -35.6,-20.255549 z"
     class="specularity"
     style="opacity:0.5;fill:url(#linearGradient3294)"
     id="path49"
     inkscape:connector-curvature="0" />
  <path
     class="high-specularity"
     d="m 45.955556,48.737108 -17.7,-10.251283 0,63.360345 c 0,6.17547 7.3,14.4506 17.8,16.92079 l -0.1,-70.029852 z"
     style="opacity:0.75;fill:url(#linearGradient3291)"
     id="path51"
     inkscape:connector-curvature="0" />
  <use
     class="stroke-highlight"
     clip-path="url(#clipoutline1)"
     xlink:href="#outline1"
     id="use55"
     style="opacity:0.3;fill:none;stroke:#ffffff;stroke-width:9px;stroke-linejoin:round"
     x="0"
     y="0"
     width="128"
     height="128"
     transform="matrix(1,0,0,1.2350944,3.5555556,-22.898367)" />
  <g
     id="g59"
     transform="matrix(1,0,0,1.0184734,3.5555556,-12.879059)">
    <use
       class="outline-big"
       xlink:href="#outline2"
       id="use61"
       x="0"
       y="0"
       width="128"
       height="128" />
    <use
       class="outline-small stroke-aluminium5"
       xlink:href="#outline2"
       id="use63"
       style="fill:#555753;stroke:#555753;stroke-width:8px"
       x="0"
       y="0"
       width="128"
       height="128" />
  </g>
  <path
     d="m 64.255556,5.4534622 c 24.3,0 43.700004,10.1847338 43.700004,22.4064148 l 0,3.564657 c 0,12.730917 -19.400004,22.915651 -43.700004,22.915651 -24.2,0 -43.7,-10.184734 -43.7,-22.915651 l 0,-3.564657 c 0,-12.221681 19.5,-22.4064148 43.7,-22.4064148 z"
     class="aluminium2"
     id="path65"
     inkscape:connector-curvature="0"
     style="fill:#d3d7cf" />
  <path
     d="m 64.255556,47.210872 c 24.3,0 43.700004,-6.51823 43.700004,-19.962079 l 0,10.286581 c 0,12.730918 -19.400004,22.915652 -43.700004,22.915652 -24.2,0 -43.7,-10.184734 -43.7,-22.915652 l 0,-10.286581 c 0,8.04594 19.5,19.962079 43.7,19.962079 z"
     class="aluminium4"
     id="path67"
     inkscape:connector-curvature="0"
     style="fill:#888a85" />
  <path
     d="m 20.029032,24.32081 c 0,11.610597 27.281281,17.868652 44.226524,17.868652 17.652349,0 43.696194,-3.813719 43.696194,-17.868652 l 0.004,3.420805 c 0,16.346994 -29.400003,19.605613 -43.700003,19.605613 -13.8,0 -44.318719,-8.492427 -44.318719,-20.714107"
     style="opacity:0.5;fill:url(#linearGradient3268)"
     id="path69"
     inkscape:connector-curvature="0" />
  <path
     d="m 64.555556,47.210872 c -27.3,0 -56.5000004,-12.629071 -34.5,3.768351 8.2,6.110841 20.2,9.166261 34.5,9.166261 14.4,0 26,-3.05542 34.7,-9.166261 21.300004,-15.480796 -7.7,-3.768351 -34.7,-3.768351 z"
     class="specularity"
     style="opacity:0.5;fill:url(#linearGradient3265)"
     id="path71"
     inkscape:connector-curvature="0" />
  <use
     class="stroke-highlight"
     clip-path="url(#clipoutline2)"
     xlink:href="#outline2"
     id="use73"
     style="opacity:0.3;fill:none;stroke:#ffffff;stroke-width:9px;stroke-linejoin:round"
     x="0"
     y="0"
     width="128"
     height="128"
     transform="matrix(1,0,0,1.0184734,3.5555556,-12.879059)" />
  <g
     id="g75"
     transform="matrix(1,0,0,1.0184734,3.5555556,-12.879059)">
    <path
       d="m 41.4,35.6 40.1,0 c 4.5,0 4.5,6.9 0,6.9 l -40.1,0 c -4.4,0 -4.6,-6.9 0,-6.9 z"
       class="shade"
       style="opacity:0.5;fill:url(#linearGradient3249)"
       id="path77"
       inkscape:connector-curvature="0" />
    <path
       d="m 61.6,19.3 c -18.6,0 -20.1,6 -20.1,12.3 l 0,6.8 c 0,2.9 7.5,2.3 7.5,0 L 49,36 c 0,-4.4 4.5,-5.5 12.6,-5.5 8.1,0 12.4,1.1 12.4,5.5 l 0,2.4 c 0,2.3 7.6,2.3 7.6,0 l 0,-6.8 c 0,-6.3 -1.6,-12.3 -20,-12.3 z"
       style="fill:#000000"
       id="path79"
       inkscape:connector-curvature="0" />
    <path
       class="specularity"
       d="M 61.6,21.3 C 53.4,21.3 47,22.5 47,27.4 l 29,0 c 0,-4.9 -6.3,-6.1 -14.4,-6.1 z"
       style="opacity:0.5;fill:url(#linearGradient3251)"
       id="path81"
       inkscape:connector-curvature="0" />
  </g>
  <path
     d="m 35.555556,73.099568 0,24.008922 c 0,10.75724 8,10.91315 8,0 l 0,-24.008922 c 0,-8.262811 -8,-8.886419 -8,0 z m 48,0 0,24.008922 c 1.9,9.19822 7.5,7.3274 8,0 l 0,-24.008922 c 0,-7.795104 -7.8,-7.639202 -8,0 z m -32.6,6.391986 0,28.530086 c 0,9.82183 8.5,8.88642 8.6,0 l 0,-28.530086 c 0,-8.418713 -8.5,-8.886419 -8.6,0 z m 16.6,0 0,28.530086 c 0,10.13363 8.9,9.04232 9,0 l 0,-28.530086 c -1.4,-9.510028 -8.2,-8.574615 -9,0 z"
     style="opacity:0.5;fill:#000000"
     id="path85"
     inkscape:connector-curvature="0" />
</svg>
