<?xml version="1.0" encoding="UTF-8" standalone="no"?>
<svg
   xmlns:dc="http://purl.org/dc/elements/1.1/"
   xmlns:cc="http://creativecommons.org/ns#"
   xmlns:rdf="http://www.w3.org/1999/02/22-rdf-syntax-ns#"
   xmlns:svg="http://www.w3.org/2000/svg"
   xmlns="http://www.w3.org/2000/svg"
   xmlns:sodipodi="http://sodipodi.sourceforge.net/DTD/sodipodi-0.dtd"
   xmlns:inkscape="http://www.inkscape.org/namespaces/inkscape"
   id="svg2"
   viewBox="0 0 32 32"
   height="100%"
   width="100%"
   version="1.0"
   inkscape:version="0.48.0 r9654"
   sodipodi:docname="hg-qpop-all.svg">
  <sodipodi:namedview
     pagecolor="#ffffff"
     bordercolor="#666666"
     borderopacity="1"
     objecttolerance="10"
     gridtolerance="10"
     guidetolerance="10"
     inkscape:pageopacity="0"
     inkscape:pageshadow="2"
     inkscape:window-width="1280"
     inkscape:window-height="738"
     id="namedview17"
     showgrid="false"
     inkscape:zoom="14.75"
     inkscape:cx="8.8020356"
     inkscape:cy="10.208663"
     inkscape:window-x="-8"
     inkscape:window-y="-8"
     inkscape:window-maximized="1"
     inkscape:current-layer="svg2" />
  <title
     id="title3197">QPopAll</title>
  <defs
     id="defs4">
    <inkscape:perspective
       sodipodi:type="inkscape:persp3d"
       inkscape:vp_x="0 : 16 : 1"
       inkscape:vp_y="0 : 1000 : 0"
       inkscape:vp_z="32 : 16 : 1"
       inkscape:persp3d-origin="16 : 10.666667 : 1"
       id="perspective19" />
    <linearGradient
       id="linearGradient3719"
       y2="8.9479"
       gradientUnits="userSpaceOnUse"
       y1="18.251"
       x2="19.394"
       x1="16.874">
      <stop
         id="stop3711"
         stop-color="#C00"
         offset="0" />
      <stop
         id="stop3713"
         stop-color="#ff0b0b"
         offset="1" />
    </linearGradient>
    <inkscape:perspective
       id="perspective5043"
       inkscape:persp3d-origin="0.5 : 0.33333333 : 1"
       inkscape:vp_z="1 : 0.5 : 1"
       inkscape:vp_y="0 : 1000 : 0"
       inkscape:vp_x="0 : 0.5 : 1"
       sodipodi:type="inkscape:persp3d" />
    <inkscape:perspective
       id="perspective5068"
       inkscape:persp3d-origin="0.5 : 0.33333333 : 1"
       inkscape:vp_z="1 : 0.5 : 1"
       inkscape:vp_y="0 : 1000 : 0"
       inkscape:vp_x="0 : 0.5 : 1"
       sodipodi:type="inkscape:persp3d" />
    <inkscape:perspective
       id="perspective2834"
       inkscape:persp3d-origin="0.5 : 0.33333333 : 1"
       inkscape:vp_z="1 : 0.5 : 1"
       inkscape:vp_y="0 : 1000 : 0"
       inkscape:vp_x="0 : 0.5 : 1"
       sodipodi:type="inkscape:persp3d" />
    <linearGradient
       id="linearGradient3719-5"
       y2="8.9478998"
       gradientUnits="userSpaceOnUse"
       y1="18.250999"
       x2="19.393999"
       x1="16.874001">
      <stop
         id="stop3711-6"
         stop-color="#C00"
         offset="0" />
      <stop
         id="stop3713-1"
         stop-color="#ff0b0b"
         offset="1" />
    </linearGradient>
  </defs>
  <metadata
     id="metadata7">
    <rdf:RDF>
      <cc:Work
         rdf:about="">
        <dc:format>image/svg+xml</dc:format>
        <dc:type
           rdf:resource="http://purl.org/dc/dcmitype/StillImage" />
        <dc:title>QPopAll</dc:title>
        <dc:date>2011-01-25</dc:date>
        <dc:creator>
          <cc:Agent>
            <dc:title>Patrice LACOUTURE</dc:title>
          </cc:Agent>
        </dc:creator>
        <dc:description>QPopAll icon for TortoiseHg - derived from QPop by Peer Sommerlund</dc:description>
        <cc:license
           rdf:resource="http://creativecommons.org/licenses/by-sa/3.0/" />
        <dc:contributor>
          <cc:Agent>
            <dc:title>Peer Sommerlund, Patrice LACOUTURE</dc:title>
          </cc:Agent>
        </dc:contributor>
      </cc:Work>
      <cc:License
         rdf:about="http://creativecommons.org/licenses/by-sa/3.0/">
        <cc:permits
           rdf:resource="http://creativecommons.org/ns#Reproduction" />
        <cc:permits
           rdf:resource="http://creativecommons.org/ns#Distribution" />
        <cc:requires
           rdf:resource="http://creativecommons.org/ns#Notice" />
        <cc:requires
           rdf:resource="http://creativecommons.org/ns#Attribution" />
        <cc:permits
           rdf:resource="http://creativecommons.org/ns#DerivativeWorks" />
        <cc:requires
           rdf:resource="http://creativecommons.org/ns#ShareAlike" />
      </cc:License>
    </rdf:RDF>
  </metadata>
  <g
     id="arrow-up-1"
     transform="translate(2.1079415,8.2284135)"
     style="stroke-linecap:butt;stroke-linejoin:miter">
    <path
       id="path3696-5"
       d="m 15.291,13.51 -3,-0.5 6,-2.5 1.5411,4.4914 -2.5,-1 c -2,2.5 -0.50416,6.4894 -0.50416,6.4894 l -2.7448,-0.06341 c 0.09967,-3.4834 -0.10636,-4.8031 1.2079,-6.9174 z"
       style="fill:url(#linearGradient3719-5);stroke:#a40000;stroke-width:1" />
    <path
       id="arrow-up-inner-shadow-9"
       d="m 15.676,13.332 c 0,0 -2.4525,-0.4167 -2.4525,-0.4167 l 4.9119,-2.0662 1.2771,3.7121 -2.1767,-0.86422 c -2.1471,2.518 -0.73246,6.5184 -0.72698,6.5386 0,0 -2.1523,-0.05295 -2.1523,-0.05295 0.0099,-3.4997 -0.06586,-4.7514 1.3195,-6.8507 z"
       style="fill:none;stroke:#ff2626;stroke-width:0.5" />
  </g>
  <g
     id="arrow-up"
     transform="translate(-6.1016949,8)"
     style="stroke-linecap:butt;stroke-linejoin:miter">
    <path
       id="path3696"
       d="m 15.291,13.51 -3,-0.5 6,-2.5 1.5411,4.4914 -2.5,-1 c -2,2.5 -0.50416,6.4894 -0.50416,6.4894 l -2.7448,-0.06341 c 0.09967,-3.4834 -0.10636,-4.8031 1.2079,-6.9174 z"
       style="fill:url(#linearGradient3719);stroke:#a40000;stroke-width:1" />
    <path
       id="arrow-up-inner-shadow"
       d="m 15.676,13.332 c 0,0 -2.4525,-0.4167 -2.4525,-0.4167 l 4.9119,-2.0662 1.2771,3.7121 -2.1767,-0.86422 c -2.1471,2.518 -0.73246,6.5184 -0.72698,6.5386 0,0 -2.1523,-0.05295 -2.1523,-0.05295 0.0099,-3.4997 -0.06586,-4.7514 1.3195,-6.8507 z"
       style="fill:none;stroke:#ff2626;stroke-width:0.5" />
  </g>
  <path
     inkscape:connector-curvature="0"
     d="m 4.4120729,13.936341 c 0,0 2.4747,1.8011 4.1564,2.5803 2.3440001,1.0865 10.1540001,2.1939 14.3430001,2.4199 l 5.762,-4.0988 c -7.421,-0.4859 -14.426,-0.9065 -19.2620001,-3.4014 l -3.0377,1.9084 -1.9625,0.5916 z"
     id="path4858-1-6"
     style="opacity:0.75000000000000000;fill:#eeeeec;stroke:#2e3436;stroke-width:1px;stroke-linecap:butt;stroke-linejoin:miter;fill-opacity:1" />
  <path
     inkscape:connector-curvature="0"
     d="m 4.6832594,10.13973 c 0,0 2.4747,1.801101 4.1564,2.580301 2.3439996,1.086499 10.1539996,2.1939 14.3429996,2.4199 l 5.762,-4.0988 c -7.421,-0.4859 -14.426,-0.9065 -19.2619996,-3.4014005 l -3.0377,1.9084 -1.9625,0.5915995 z"
     id="path4858-1"
     style="opacity:0.75000000000000000;fill:#eeeeec;stroke:#2e3436;stroke-width:1px;stroke-linecap:butt;stroke-linejoin:miter;fill-opacity:1" />
  <path
     inkscape:connector-curvature="0"
     style="opacity:0.75000000000000000;fill:#eeeeec;stroke:#2e3436;stroke-width:1px;stroke-linecap:butt;stroke-linejoin:miter;fill-opacity:1"
     d="m 4.943861,6.3467661 c 0,0 2.4747,1.8011 4.1564,2.5803 2.344,1.0864999 10.154,2.1938999 14.343,2.4198999 l 5.762,-4.0987999 c -7.421,-0.4859 -14.426,-0.9065 -19.262,-3.4014 l -3.0377,1.9084 -1.9625,0.5916 z"
     id="path4858" />
</svg>
