<?xml version="1.0" encoding="UTF-8" standalone="no"?>
<!-- Created with Inkscape (http://www.inkscape.org/) -->

<svg
   xmlns:dc="http://purl.org/dc/elements/1.1/"
   xmlns:cc="http://creativecommons.org/ns#"
   xmlns:rdf="http://www.w3.org/1999/02/22-rdf-syntax-ns#"
   xmlns:svg="http://www.w3.org/2000/svg"
   xmlns="http://www.w3.org/2000/svg"
   xmlns:sodipodi="http://sodipodi.sourceforge.net/DTD/sodipodi-0.dtd"
   xmlns:inkscape="http://www.inkscape.org/namespaces/inkscape"
   width="48px"
   height="48px"
   id="svg2816"
   version="1.1"
   inkscape:version="0.47 r22583"
   sodipodi:docname="showlog.svg"
   inkscape:export-filename="C:\DEV\thg-qt-work\tortoisehg\hgqt\icons\showlog2.png"
   inkscape:export-xdpi="90"
   inkscape:export-ydpi="90">
  <title
     id="title3867">showlog</title>
  <defs
     id="defs2818">
    <inkscape:perspective
       sodipodi:type="inkscape:persp3d"
       inkscape:vp_x="0 : 24 : 1"
       inkscape:vp_y="0 : 1000 : 0"
       inkscape:vp_z="48 : 24 : 1"
       inkscape:persp3d-origin="24 : 16 : 1"
       id="perspective20" />
  </defs>
  <sodipodi:namedview
     id="base"
     pagecolor="#ffffff"
     bordercolor="#666666"
     borderopacity="1.0"
     inkscape:pageopacity="0.0"
     inkscape:pageshadow="2"
     inkscape:zoom="8"
     inkscape:cx="-13.6875"
     inkscape:cy="25.025811"
     inkscape:current-layer="layer1"
     showgrid="true"
     inkscape:grid-bbox="true"
     inkscape:document-units="px"
     inkscape:window-width="1229"
     inkscape:window-height="774"
     inkscape:window-x="45"
     inkscape:window-y="0"
     inkscape:window-maximized="1" />
  <metadata
     id="metadata2821">
    <rdf:RDF>
      <cc:Work
         rdf:about="">
        <dc:format>image/svg+xml</dc:format>
        <dc:type
           rdf:resource="http://purl.org/dc/dcmitype/StillImage" />
        <dc:title>showlog</dc:title>
        <dc:creator>
          <cc:Agent>
            <dc:title>Johan Samyn</dc:title>
          </cc:Agent>
        </dc:creator>
        <dc:publisher>
          <cc:Agent>
            <dc:title>TortoiseHg Project</dc:title>
          </cc:Agent>
        </dc:publisher>
        <dc:date>2010-09-01</dc:date>
        <cc:license
           rdf:resource="http://creativecommons.org/licenses/by-sa/3.0/" />
      </cc:Work>
      <cc:License
         rdf:about="http://creativecommons.org/licenses/by-sa/3.0/">
        <cc:permits
           rdf:resource="http://creativecommons.org/ns#Reproduction" />
        <cc:permits
           rdf:resource="http://creativecommons.org/ns#Distribution" />
        <cc:requires
           rdf:resource="http://creativecommons.org/ns#Notice" />
        <cc:requires
           rdf:resource="http://creativecommons.org/ns#Attribution" />
        <cc:permits
           rdf:resource="http://creativecommons.org/ns#DerivativeWorks" />
        <cc:requires
           rdf:resource="http://creativecommons.org/ns#ShareAlike" />
      </cc:License>
    </rdf:RDF>
  </metadata>
  <g
     id="layer1"
     inkscape:label="Layer 1"
     inkscape:groupmode="layer">
    <rect
       style="fill:#803300;fill-opacity:1;stroke:#000000;stroke-width:0;stroke-linecap:round;stroke-linejoin:round;stroke-miterlimit:4;stroke-opacity:1;stroke-dasharray:none"
       id="rect3885"
       width="31.375"
       height="44.75"
       x="6.6422272"
       y="3.2450521"
       transform="matrix(0.99756405,-0.06975647,0.06975647,0.99756405,0,0)" />
    <rect
       style="fill:#ffffff;fill-opacity:1;stroke:#000000;stroke-width:0;stroke-linecap:round;stroke-linejoin:round;stroke-miterlimit:4;stroke-opacity:1;stroke-dasharray:none"
       id="rect3885-4"
       width="26.825624"
       height="38.26125"
       x="8.8458481"
       y="6.6097631"
       transform="matrix(0.99756405,-0.06975647,0.06975647,0.99756405,0,0)" />
    <path
       style="fill:none;stroke:#c8c8c8;stroke-width:6.40097666;stroke-linecap:butt;stroke-linejoin:miter;stroke-miterlimit:4;stroke-opacity:1;stroke-dasharray:none"
       d="m 18.275815,6.3473469 8.44837,-0.5696938"
       id="path3915" />
    <g
       transform="matrix(0.9445982,-0.07366788,0.06605274,1.0534998,0,0)"
       style="font-size:10.84082031px;font-style:normal;font-weight:normal;text-align:start;text-anchor:start;fill:#000000;fill-opacity:1;stroke:none;font-family:Arial;-inkscape-font-specification:Arial"
       id="text3941">
      <path
         d="m 12.752951,20.099464 0,-7.696559 1.566837,0 0,6.389097 3.89592,0 0,1.307462 -5.462757,0"
         style="font-weight:bold;fill:#0000ff"
         id="path2827" />
      <path
         d="m 19.0203,16.267065 c 0,-0.790472 0.118218,-1.453907 0.354656,-1.990307 0.176445,-0.395232 0.416411,-0.749887 0.719898,-1.063967 0.307014,-0.314066 0.64226,-0.546974 1.005741,-0.698725 0.483458,-0.204669 1.041025,-0.307007 1.672704,-0.307015 1.143363,8e-6 2.05735,0.354663 2.741966,1.063967 0.68813,0.709318 1.032199,1.695648 1.032207,2.958993 -8e-6,1.252767 -0.340548,2.233804 -1.021621,2.943114 -0.681086,0.705783 -1.591545,1.058674 -2.731378,1.058674 -1.153958,0 -2.071474,-0.351127 -2.752552,-1.053381 C 19.36084,18.472637 19.0203,17.502187 19.0203,16.267065 m 1.614478,-0.05293 c -2e-6,0.878703 0.20291,1.545667 0.608737,2.000894 0.405822,0.451702 0.921043,0.677552 1.545664,0.677551 0.624613,1e-6 1.136305,-0.224084 1.535077,-0.672258 0.40229,-0.451698 0.603438,-1.127484 0.603445,-2.02736 -7e-6,-0.889281 -0.195861,-1.552716 -0.587564,-1.990307 -0.388186,-0.437579 -0.905172,-0.656371 -1.550958,-0.656378 -0.645794,7e-6 -1.166308,0.222328 -1.561544,0.666965 -0.39524,0.441119 -0.592859,1.108083 -0.592857,2.000893"
         style="font-weight:bold;fill:#0000ff"
         id="path2829" />
      <path
         d="m 31.396198,17.246338 0,-1.307462 3.377169,0 0,3.091328 c -0.328196,0.317603 -0.804599,0.598151 -1.429209,0.841646 -0.621095,0.239966 -1.251005,0.359949 -1.889733,0.359949 -0.811654,0 -1.5192,-0.169388 -2.122641,-0.508164 -0.603446,-0.342304 -1.056911,-0.829293 -1.360396,-1.46097 -0.303487,-0.635202 -0.45523,-1.325103 -0.45523,-2.069707 0,-0.808116 0.169387,-1.52625 0.508164,-2.154401 0.338774,-0.62814 0.834586,-1.109836 1.487436,-1.44509 0.497574,-0.257603 1.116898,-0.386408 1.857973,-0.386416 0.963388,8e-6 1.715046,0.20292 2.254975,0.608737 0.543446,0.402303 0.892808,0.959871 1.048087,1.672705 l -1.55625,0.291135 c -0.109402,-0.381117 -0.315844,-0.681074 -0.619324,-0.899873 -0.299963,-0.222315 -0.675792,-0.333475 -1.127488,-0.333482 -0.684613,7e-6 -1.229829,0.217035 -1.635651,0.651085 -0.402299,0.434061 -0.603446,1.078087 -0.603444,1.932079 -2e-6,0.92105 0.204674,1.612716 0.614031,2.075001 0.40935,0.45876 0.945745,0.688139 1.609184,0.688138 0.328184,1e-6 0.656373,-0.06352 0.984567,-0.190561 0.331712,-0.130568 0.615789,-0.287605 0.852232,-0.47111 l 0,-0.984567 -1.794452,0"
         style="font-weight:bold;fill:#0000ff"
         id="path2831" />
    </g>
    <g
       transform="matrix(0.99756405,-0.06975647,0.06975647,0.99756405,0,0)"
       style="font-size:4px;font-style:normal;font-weight:normal;text-align:start;text-anchor:start;fill:#000000;fill-opacity:1;stroke:none;font-family:Arial;-inkscape-font-specification:Arial"
       id="text3945">
      <path
         d="m 11.096682,26.128012 -0.351563,0 0,-2.240235 c -0.08464,0.08073 -0.195964,0.161461 -0.333984,0.242188 -0.13672,0.08073 -0.259766,0.141278 -0.369141,0.18164 l 0,-0.339843 c 0.196614,-0.09245 0.368489,-0.204425 0.515625,-0.335938 0.147134,-0.131508 0.251301,-0.259112 0.3125,-0.382812 l 0.226563,0 0,2.875"
         style=""
         id="path2834" />
      <path
         d="m 12.000978,25.372152 0.351563,-0.04687 c 0.04036,0.19922 0.108723,0.3431 0.205078,0.431641 0.09766,0.08724 0.216145,0.13086 0.355469,0.130859 0.165363,1e-6 0.304686,-0.05729 0.417969,-0.171875 0.114581,-0.114582 0.171873,-0.256509 0.171875,-0.425781 -2e-6,-0.161457 -0.05274,-0.29427 -0.158204,-0.398437 -0.10547,-0.105468 -0.239584,-0.158202 -0.402343,-0.158204 -0.06641,2e-6 -0.14909,0.01302 -0.248047,0.03906 l 0.03906,-0.308594 c 0.02344,0.0026 0.04232,0.0039 0.05664,0.0039 0.149738,2e-6 0.284504,-0.03906 0.404297,-0.117187 0.11979,-0.07812 0.179686,-0.198566 0.179687,-0.361328 -10e-7,-0.128904 -0.04362,-0.235675 -0.130859,-0.320313 -0.08724,-0.08463 -0.199871,-0.12695 -0.337891,-0.126953 -0.136719,3e-6 -0.250652,0.04297 -0.341797,0.128906 -0.09115,0.08594 -0.14974,0.214846 -0.175781,0.386719 l -0.351562,-0.0625 c 0.04297,-0.235675 0.140624,-0.417966 0.292968,-0.546875 0.152344,-0.130205 0.341797,-0.195309 0.56836,-0.195312 0.156249,3e-6 0.300129,0.03386 0.43164,0.101562 0.131509,0.06641 0.23177,0.157555 0.300782,0.273438 0.07031,0.115888 0.105467,0.238934 0.105468,0.36914 -10e-7,0.1237 -0.03321,0.23633 -0.09961,0.337891 -0.06641,0.101564 -0.164715,0.182293 -0.294922,0.242187 0.169269,0.03906 0.30078,0.120445 0.394531,0.244141 0.09375,0.122397 0.140623,0.276043 0.140625,0.460938 -2e-6,0.25 -0.09115,0.46224 -0.273437,0.636718 -0.182293,0.173177 -0.412762,0.259766 -0.691406,0.259766 -0.251303,0 -0.460287,-0.07487 -0.626953,-0.224609 -0.165365,-0.14974 -0.259766,-0.34375 -0.283204,-0.582032"
         style=""
         id="path2836" />
      <path
         d="m 14.4209,24.454184 0,-0.400391 0.400391,0 0,0.400391 -0.400391,0 m 0,1.673828 0,-0.400391 0.400391,0 0,0.400391 -0.400391,0"
         style=""
         id="path2838" />
      <path
         d="m 16.461916,26.128012 0,-0.685547 -1.242188,0 0,-0.322266 1.306641,-1.855469 0.287109,0 0,1.855469 0.386719,0 0,0.322266 -0.386719,0 0,0.685547 -0.351562,0 m 0,-1.007813 0,-1.291015 -0.896484,1.291015 0.896484,0"
         style=""
         id="path2840" />
      <path
         d="m 17.563478,25.372152 0.351563,-0.04687 c 0.04036,0.19922 0.108723,0.3431 0.205078,0.431641 0.09766,0.08724 0.216145,0.13086 0.355469,0.130859 0.165363,1e-6 0.304686,-0.05729 0.417969,-0.171875 0.114581,-0.114582 0.171873,-0.256509 0.171875,-0.425781 -2e-6,-0.161457 -0.05274,-0.29427 -0.158204,-0.398437 -0.10547,-0.105468 -0.239584,-0.158202 -0.402343,-0.158204 -0.06641,2e-6 -0.14909,0.01302 -0.248047,0.03906 l 0.03906,-0.308594 c 0.02344,0.0026 0.04232,0.0039 0.05664,0.0039 0.149738,2e-6 0.284504,-0.03906 0.404297,-0.117187 0.11979,-0.07812 0.179686,-0.198566 0.179687,-0.361328 -1e-6,-0.128904 -0.04362,-0.235675 -0.130859,-0.320313 -0.08724,-0.08463 -0.199871,-0.12695 -0.337891,-0.126953 -0.136719,3e-6 -0.250652,0.04297 -0.341797,0.128906 -0.09115,0.08594 -0.14974,0.214846 -0.175781,0.386719 l -0.351562,-0.0625 c 0.04297,-0.235675 0.140624,-0.417966 0.292968,-0.546875 0.152344,-0.130205 0.341797,-0.195309 0.56836,-0.195312 0.156249,3e-6 0.300129,0.03386 0.43164,0.101562 0.131509,0.06641 0.23177,0.157555 0.300782,0.273438 0.07031,0.115888 0.105467,0.238934 0.105468,0.36914 -1e-6,0.1237 -0.0332,0.23633 -0.09961,0.337891 -0.06641,0.101564 -0.164715,0.182293 -0.294922,0.242187 0.169269,0.03906 0.30078,0.120445 0.394531,0.244141 0.09375,0.122397 0.140623,0.276043 0.140625,0.460938 -2e-6,0.25 -0.09115,0.46224 -0.273437,0.636718 -0.182293,0.173177 -0.412762,0.259766 -0.691406,0.259766 -0.251303,0 -0.460287,-0.07487 -0.626953,-0.224609 -0.165365,-0.14974 -0.259766,-0.34375 -0.283204,-0.582032"
         style=""
         id="path2842" />
      <path
         d="m 20.995119,26.922934 0,-2.869141 0.320313,0 0,0.269531 c 0.07552,-0.105467 0.160806,-0.184243 0.255859,-0.236328 0.09505,-0.05338 0.210285,-0.08008 0.345703,-0.08008 0.177082,2e-6 0.333332,0.04557 0.46875,0.136719 0.135415,0.09115 0.237628,0.220054 0.306641,0.386718 0.06901,0.165366 0.103513,0.347007 0.103515,0.544922 -2e-6,0.212241 -0.03841,0.403647 -0.115234,0.574219 -0.07552,0.169271 -0.1862,0.299479 -0.332031,0.390625 -0.144533,0.08984 -0.296877,0.134766 -0.457032,0.134766 -0.117188,0 -0.222657,-0.02474 -0.316406,-0.07422 -0.09245,-0.04948 -0.16862,-0.111979 -0.228515,-0.1875 l 0,1.009766 -0.351563,0 m 0.318359,-1.820313 c 0,0.266928 0.05404,0.464193 0.16211,0.591797 0.108072,0.127604 0.238931,0.191406 0.392578,0.191406 0.156249,0 0.289712,-0.06575 0.400391,-0.197265 0.111977,-0.132812 0.167967,-0.33789 0.167968,-0.615235 -1e-6,-0.264321 -0.05469,-0.462238 -0.164062,-0.59375 -0.108075,-0.131508 -0.237632,-0.197264 -0.388672,-0.197265 -0.149741,10e-7 -0.282553,0.07031 -0.398438,0.210937 -0.114584,0.139324 -0.171875,0.342449 -0.171875,0.609375"
         style=""
         id="path2844" />
      <path
         d="m 24.588869,26.128012 0,-0.304688 c -0.16146,0.234375 -0.380861,0.351563 -0.658203,0.351563 -0.122397,0 -0.23698,-0.02344 -0.34375,-0.07031 -0.105469,-0.04687 -0.184245,-0.105468 -0.236328,-0.175781 -0.05078,-0.07161 -0.08659,-0.158854 -0.107422,-0.261719 -0.01432,-0.06901 -0.02148,-0.178385 -0.02148,-0.328125 l 0,-1.285156 0.351562,0 0,1.150391 c -10e-7,0.183594 0.0072,0.307292 0.02148,0.371093 0.02213,0.09245 0.06901,0.165365 0.140625,0.21875 0.07161,0.05208 0.160156,0.07813 0.265625,0.07813 0.105468,1e-6 0.204426,-0.02669 0.296875,-0.08008 0.09245,-0.05469 0.157551,-0.128255 0.195313,-0.220703 0.03906,-0.09375 0.05859,-0.229166 0.05859,-0.40625 l 0,-1.111328 0.351562,0 0,2.074219 -0.314453,0"
         style=""
         id="path2846" />
      <path
         d="m 25.448244,26.128012 0,-2.863282 0.351563,0 0,2.863282 -0.351563,0"
         style=""
         id="path2848" />
      <path
         d="m 26.338869,26.128012 0,-2.863282 0.351563,0 0,2.863282 -0.351563,0"
         style=""
         id="path2850" />
      <path
         d="m 27.23926,23.669027 0,-0.404297 0.351562,0 0,0.404297 -0.351562,0 m 0,2.458985 0,-2.074219 0.351562,0 0,2.074219 -0.351562,0"
         style=""
         id="path2852" />
      <path
         d="m 28.127932,26.128012 0,-2.074219 0.316406,0 0,0.294922 c 0.152343,-0.227863 0.372395,-0.341795 0.660156,-0.341797 0.124999,2e-6 0.239582,0.02279 0.34375,0.06836 0.105467,0.04427 0.184243,0.102867 0.236328,0.175782 0.05208,0.07292 0.08854,0.159507 0.109375,0.259765 0.01302,0.06511 0.01953,0.179038 0.01953,0.341797 l 0,1.275391 -0.351562,0 0,-1.261719 c -2e-6,-0.143228 -0.01367,-0.249999 -0.04102,-0.320313 -0.02735,-0.07161 -0.07617,-0.128253 -0.146484,-0.169921 -0.06901,-0.04297 -0.150392,-0.06445 -0.244141,-0.06445 -0.14974,2e-6 -0.279297,0.04753 -0.388672,0.142579 -0.108073,0.09505 -0.16211,0.275392 -0.162109,0.541015 l 0,1.132813 -0.351562,0"
         style=""
         id="path2854" />
      <path
         d="m 30.290041,26.299887 0.341797,0.05078 c 0.01432,0.105468 0.05404,0.182291 0.11914,0.230469 0.08724,0.0651 0.20638,0.09766 0.357422,0.09766 0.16276,-10e-7 0.28841,-0.03255 0.376953,-0.09766 0.08854,-0.0651 0.148436,-0.156251 0.179688,-0.273438 0.01823,-0.07161 0.02669,-0.222005 0.02539,-0.451172 -0.153648,0.18099 -0.345054,0.271485 -0.574219,0.271485 -0.285157,0 -0.50586,-0.102865 -0.66211,-0.308594 -0.15625,-0.205729 -0.234375,-0.452473 -0.234375,-0.740234 0,-0.197916 0.03581,-0.380207 0.107422,-0.546875 0.07162,-0.167967 0.17513,-0.297525 0.310547,-0.388672 0.136718,-0.09114 0.296874,-0.136717 0.480469,-0.136719 0.24479,2e-6 0.446613,0.09896 0.605469,0.296875 l 0,-0.25 0.324218,0 0,1.792969 c -1e-6,0.322916 -0.03321,0.551432 -0.09961,0.685547 -0.06511,0.135416 -0.169272,0.242186 -0.3125,0.320312 -0.141928,0.07812 -0.317058,0.117187 -0.525391,0.117188 -0.247396,-1e-6 -0.447266,-0.05599 -0.599609,-0.167969 -0.152344,-0.110678 -0.225912,-0.277995 -0.220703,-0.501953 m 0.291016,-1.246094 c -1e-6,0.272136 0.05404,0.470704 0.162109,0.595703 0.108072,0.125 0.243489,0.1875 0.40625,0.1875 0.161457,0 0.296874,-0.06185 0.40625,-0.185547 0.109373,-0.124999 0.164061,-0.320311 0.164062,-0.585937 -1e-6,-0.253905 -0.05664,-0.445311 -0.169921,-0.574219 -0.111981,-0.128905 -0.247397,-0.193358 -0.40625,-0.193359 -0.156251,10e-7 -0.289064,0.0638 -0.398438,0.191406 -0.109375,0.126303 -0.164063,0.314454 -0.164062,0.564453"
         style=""
         id="path2856" />
      <path
         d="m 11.096682,31.128012 -0.351563,0 0,-2.240235 c -0.08464,0.08073 -0.195964,0.161461 -0.333984,0.242188 -0.13672,0.08073 -0.259766,0.141278 -0.369141,0.18164 l 0,-0.339843 c 0.196614,-0.09245 0.368489,-0.204425 0.515625,-0.335938 0.147134,-0.131508 0.251301,-0.259112 0.3125,-0.382812 l 0.226563,0 0,2.875"
         style=""
         id="path2858" />
      <path
         d="m 12.000978,30.372152 0.351563,-0.04687 c 0.04036,0.19922 0.108723,0.3431 0.205078,0.431641 0.09766,0.08724 0.216145,0.13086 0.355469,0.130859 0.165363,1e-6 0.304686,-0.05729 0.417969,-0.171875 0.114581,-0.114582 0.171873,-0.256509 0.171875,-0.425781 -2e-6,-0.161457 -0.05274,-0.29427 -0.158204,-0.398437 -0.10547,-0.105468 -0.239584,-0.158202 -0.402343,-0.158204 -0.06641,2e-6 -0.14909,0.01302 -0.248047,0.03906 l 0.03906,-0.308594 c 0.02344,0.0026 0.04232,0.0039 0.05664,0.0039 0.149738,2e-6 0.284504,-0.03906 0.404297,-0.117187 0.11979,-0.07812 0.179686,-0.198566 0.179687,-0.361328 -10e-7,-0.128904 -0.04362,-0.235675 -0.130859,-0.320313 -0.08724,-0.08463 -0.199871,-0.12695 -0.337891,-0.126953 -0.136719,3e-6 -0.250652,0.04297 -0.341797,0.128906 -0.09115,0.08594 -0.14974,0.214846 -0.175781,0.386719 l -0.351562,-0.0625 c 0.04297,-0.235675 0.140624,-0.417966 0.292968,-0.546875 0.152344,-0.130205 0.341797,-0.195309 0.56836,-0.195312 0.156249,3e-6 0.300129,0.03386 0.43164,0.101562 0.131509,0.06641 0.23177,0.157555 0.300782,0.273438 0.07031,0.115888 0.105467,0.238934 0.105468,0.36914 -10e-7,0.1237 -0.03321,0.23633 -0.09961,0.337891 -0.06641,0.101564 -0.164715,0.182293 -0.294922,0.242187 0.169269,0.03906 0.30078,0.120445 0.394531,0.244141 0.09375,0.122397 0.140623,0.276043 0.140625,0.460938 -2e-6,0.25 -0.09115,0.46224 -0.273437,0.636718 -0.182293,0.173177 -0.412762,0.259766 -0.691406,0.259766 -0.251303,0 -0.460287,-0.07487 -0.626953,-0.224609 -0.165365,-0.14974 -0.259766,-0.34375 -0.283204,-0.582032"
         style=""
         id="path2860" />
      <path
         d="m 14.4209,29.454184 0,-0.400391 0.400391,0 0,0.400391 -0.400391,0 m 0,1.673828 0,-0.400391 0.400391,0 0,0.400391 -0.400391,0"
         style=""
         id="path2862" />
      <path
         d="m 16.461916,31.128012 0,-0.685547 -1.242188,0 0,-0.322266 1.306641,-1.855469 0.287109,0 0,1.855469 0.386719,0 0,0.322266 -0.386719,0 0,0.685547 -0.351562,0 m 0,-1.007813 0,-1.291015 -0.896484,1.291015 0.896484,0"
         style=""
         id="path2864" />
      <path
         d="m 18.688478,31.128012 0,-0.685547 -1.242187,0 0,-0.322266 1.306641,-1.855469 0.287109,0 0,1.855469 0.386719,0 0,0.322266 -0.386719,0 0,0.685547 -0.351563,0 m 0,-1.007813 0,-1.291015 -0.896484,1.291015 0.896484,0"
         style=""
         id="path2866" />
      <path
         d="m 20.987307,31.128012 0,-2.863282 0.351562,0 0,2.863282 -0.351562,0"
         style=""
         id="path2868" />
      <path
         d="m 21.754885,30.090902 c 0,-0.384113 0.10677,-0.668618 0.320312,-0.853515 0.178385,-0.153644 0.395833,-0.230467 0.652344,-0.230469 0.285155,2e-6 0.518228,0.09375 0.699219,0.28125 0.180987,0.1862 0.271482,0.444012 0.271484,0.773437 -2e-6,0.266928 -0.04037,0.477215 -0.121094,0.63086 -0.07943,0.152344 -0.195965,0.270833 -0.349609,0.355469 -0.152345,0.08463 -0.319012,0.126953 -0.5,0.126953 -0.290365,0 -0.525391,-0.0931 -0.705078,-0.279297 -0.178386,-0.186198 -0.267578,-0.454427 -0.267578,-0.804688 m 0.361328,0 c -10e-7,0.265626 0.05794,0.464845 0.173828,0.597657 0.115885,0.13151 0.261718,0.197265 0.4375,0.197265 0.174478,0 0.31966,-0.06641 0.435547,-0.199219 0.115884,-0.132811 0.173826,-0.335285 0.173828,-0.607421 -2e-6,-0.25651 -0.0586,-0.45052 -0.175781,-0.582032 -0.115887,-0.13281 -0.260418,-0.199217 -0.433594,-0.199218 -0.175782,10e-7 -0.321615,0.06576 -0.4375,0.197265 -0.115886,0.131512 -0.173829,0.33008 -0.173828,0.595703"
         style=""
         id="path2870" />
      <path
         d="m 23.981447,30.090902 c 0,-0.384113 0.106771,-0.668618 0.320313,-0.853515 0.178385,-0.153644 0.395832,-0.230467 0.652343,-0.230469 0.285155,2e-6 0.518228,0.09375 0.699219,0.28125 0.180988,0.1862 0.271483,0.444012 0.271485,0.773437 -2e-6,0.266928 -0.04037,0.477215 -0.121094,0.63086 -0.07943,0.152344 -0.195965,0.270833 -0.34961,0.355469 -0.152345,0.08463 -0.319011,0.126953 -0.5,0.126953 -0.290365,0 -0.525391,-0.0931 -0.705078,-0.279297 -0.178385,-0.186198 -0.267578,-0.454427 -0.267578,-0.804688 m 0.361328,0 c 0,0.265626 0.05794,0.464845 0.173828,0.597657 0.115885,0.13151 0.261718,0.197265 0.4375,0.197265 0.174478,0 0.319661,-0.06641 0.435547,-0.199219 0.115884,-0.132811 0.173827,-0.335285 0.173828,-0.607421 -1e-6,-0.25651 -0.0586,-0.45052 -0.175781,-0.582032 -0.115887,-0.13281 -0.260418,-0.199217 -0.433594,-0.199218 -0.175782,10e-7 -0.321615,0.06576 -0.4375,0.197265 -0.115885,0.131512 -0.173828,0.33008 -0.173828,0.595703"
         style=""
         id="path2872" />
      <path
         d="m 26.340822,31.128012 0,-2.863282 0.351563,0 0,1.632813 0.832031,-0.84375 0.455078,0 -0.792969,0.769531 0.873047,1.304688 -0.433594,0 -0.685546,-1.060547 -0.248047,0.238281 0,0.822266 -0.351563,0"
         style=""
         id="path2874" />
      <path
         d="m 29.532228,31.128012 0,-1.800782 -0.310546,0 0,-0.273437 0.310546,0 0,-0.220703 c 0,-0.139321 0.01237,-0.242836 0.03711,-0.310547 0.03385,-0.09114 0.0931,-0.164711 0.177734,-0.220703 0.08594,-0.05729 0.205729,-0.08593 0.359375,-0.08594 0.09896,3e-6 0.208332,0.01172 0.328125,0.03516 l -0.05273,0.30664 c -0.07292,-0.01302 -0.141928,-0.01953 -0.207031,-0.01953 -0.106772,3e-6 -0.182293,0.02279 -0.226563,0.06836 -0.04427,0.04558 -0.06641,0.130862 -0.06641,0.25586 l 0,0.191406 0.404297,0 0,0.273437 -0.404297,0 0,1.800782 -0.34961,0"
         style=""
         id="path2876" />
      <path
         d="m 30.42676,30.090902 c 0,-0.384113 0.10677,-0.668618 0.320312,-0.853515 0.178385,-0.153644 0.395833,-0.230467 0.652344,-0.230469 0.285155,2e-6 0.518228,0.09375 0.699219,0.28125 0.180987,0.1862 0.271482,0.444012 0.271484,0.773437 -2e-6,0.266928 -0.04037,0.477215 -0.121094,0.63086 -0.07943,0.152344 -0.195965,0.270833 -0.349609,0.355469 -0.152345,0.08463 -0.319012,0.126953 -0.5,0.126953 -0.290365,0 -0.525391,-0.0931 -0.705078,-0.279297 -0.178386,-0.186198 -0.267578,-0.454427 -0.267578,-0.804688 m 0.361328,0 c -10e-7,0.265626 0.05794,0.464845 0.173828,0.597657 0.115885,0.13151 0.261718,0.197265 0.4375,0.197265 0.174478,0 0.31966,-0.06641 0.435547,-0.199219 0.115884,-0.132811 0.173826,-0.335285 0.173828,-0.607421 -2e-6,-0.25651 -0.0586,-0.45052 -0.175781,-0.582032 -0.115887,-0.13281 -0.260418,-0.199217 -0.433594,-0.199218 -0.175782,10e-7 -0.321615,0.06576 -0.4375,0.197265 -0.115886,0.131512 -0.173829,0.33008 -0.173828,0.595703"
         style=""
         id="path2878" />
      <path
         d="m 32.780275,31.128012 0,-2.074219 0.316407,0 0,0.314453 c 0.08073,-0.147133 0.154947,-0.244139 0.222656,-0.291016 0.06901,-0.04687 0.14453,-0.07031 0.226562,-0.07031 0.118489,2e-6 0.238931,0.03776 0.361328,0.113281 l -0.121093,0.326172 c -0.08594,-0.05078 -0.171876,-0.07617 -0.257813,-0.07617 -0.07682,2e-6 -0.145834,0.02344 -0.207031,0.07031 -0.0612,0.04557 -0.104818,0.109376 -0.130859,0.191406 -0.03906,0.125001 -0.0586,0.26172 -0.05859,0.410156 l 0,1.085938 -0.351563,0"
         style=""
         id="path2880" />
      <path
         d="m 11.096682,36.128012 -0.351563,0 0,-2.240235 c -0.08464,0.08073 -0.195964,0.161461 -0.333984,0.242188 -0.13672,0.08073 -0.259766,0.141278 -0.369141,0.18164 l 0,-0.339843 c 0.196614,-0.09245 0.368489,-0.204425 0.515625,-0.335938 0.147134,-0.131508 0.251301,-0.259112 0.3125,-0.382812 l 0.226563,0 0,2.875"
         style=""
         id="path2882" />
      <path
         d="m 12.000978,35.372152 0.351563,-0.04687 c 0.04036,0.19922 0.108723,0.3431 0.205078,0.431641 0.09766,0.08724 0.216145,0.13086 0.355469,0.130859 0.165363,10e-7 0.304686,-0.05729 0.417969,-0.171875 0.114581,-0.114582 0.171873,-0.256509 0.171875,-0.425781 -2e-6,-0.161457 -0.05274,-0.29427 -0.158204,-0.398437 -0.10547,-0.105468 -0.239584,-0.158202 -0.402343,-0.158204 -0.06641,2e-6 -0.14909,0.01302 -0.248047,0.03906 l 0.03906,-0.308594 c 0.02344,0.0026 0.04232,0.0039 0.05664,0.0039 0.149738,2e-6 0.284504,-0.03906 0.404297,-0.117187 0.11979,-0.07812 0.179686,-0.198566 0.179687,-0.361328 -10e-7,-0.128904 -0.04362,-0.235675 -0.130859,-0.320313 -0.08724,-0.08463 -0.199871,-0.12695 -0.337891,-0.126953 -0.136719,3e-6 -0.250652,0.04297 -0.341797,0.128906 -0.09115,0.08594 -0.14974,0.214846 -0.175781,0.386719 l -0.351562,-0.0625 c 0.04297,-0.235675 0.140624,-0.417966 0.292968,-0.546875 0.152344,-0.130205 0.341797,-0.195309 0.56836,-0.195312 0.156249,3e-6 0.300129,0.03386 0.43164,0.101562 0.131509,0.06641 0.23177,0.157555 0.300782,0.273438 0.07031,0.115888 0.105467,0.238934 0.105468,0.36914 -10e-7,0.1237 -0.03321,0.23633 -0.09961,0.337891 -0.06641,0.101564 -0.164715,0.182293 -0.294922,0.242187 0.169269,0.03906 0.30078,0.120445 0.394531,0.244141 0.09375,0.122397 0.140623,0.276043 0.140625,0.460938 -2e-6,0.25 -0.09115,0.46224 -0.273437,0.636718 -0.182293,0.173177 -0.412762,0.259766 -0.691406,0.259766 -0.251303,0 -0.460287,-0.07487 -0.626953,-0.224609 -0.165365,-0.14974 -0.259766,-0.34375 -0.283204,-0.582032"
         style=""
         id="path2884" />
      <path
         d="m 14.4209,34.454184 0,-0.400391 0.400391,0 0,0.400391 -0.400391,0 m 0,1.673828 0,-0.400391 0.400391,0 0,0.400391 -0.400391,0"
         style=""
         id="path2886" />
      <path
         d="m 16.461916,36.128012 0,-0.685547 -1.242188,0 0,-0.322266 1.306641,-1.855469 0.287109,0 0,1.855469 0.386719,0 0,0.322266 -0.386719,0 0,0.685547 -0.351562,0 m 0,-1.007813 0,-1.291015 -0.896484,1.291015 0.896484,0"
         style=""
         id="path2888" />
      <path
         d="m 19.385744,33.965902 -0.349609,0.02734 c -0.03125,-0.138018 -0.07552,-0.238279 -0.132813,-0.300781 -0.09505,-0.100258 -0.212241,-0.150388 -0.351562,-0.150391 -0.11198,3e-6 -0.210288,0.03125 -0.294922,0.09375 -0.110678,0.08073 -0.197917,0.19857 -0.261719,0.353516 -0.0638,0.15495 -0.09701,0.375653 -0.09961,0.662109 0.08463,-0.128904 0.18815,-0.224607 0.310547,-0.287109 0.122394,-0.0625 0.25065,-0.09375 0.384765,-0.09375 0.234374,2e-6 0.433592,0.08659 0.597656,0.259765 0.165363,0.171877 0.248045,0.394533 0.248047,0.667969 -2e-6,0.179688 -0.03906,0.347006 -0.117187,0.501953 -0.07682,0.153646 -0.182945,0.271485 -0.31836,0.353516 -0.135418,0.08203 -0.289063,0.123047 -0.460937,0.123047 -0.29297,0 -0.531902,-0.107422 -0.716797,-0.322266 C 17.638348,35.638429 17.5459,35.28296 17.5459,34.788168 c 0,-0.553384 0.102214,-0.955727 0.306641,-1.207031 0.178385,-0.218748 0.418619,-0.328122 0.720703,-0.328125 0.225259,3e-6 0.409504,0.06315 0.552734,0.189453 0.14453,0.126304 0.231118,0.300783 0.259766,0.523437 m -1.435547,1.234375 c 0,0.121095 0.02539,0.23698 0.07617,0.347657 0.05208,0.110677 0.124348,0.195312 0.216797,0.253906 0.09245,0.05729 0.189452,0.08594 0.291016,0.08594 0.148436,10e-7 0.27604,-0.05989 0.382812,-0.179687 0.106769,-0.119791 0.160155,-0.282552 0.160156,-0.488281 -1e-6,-0.197916 -0.05274,-0.353515 -0.158203,-0.466797 -0.10547,-0.114582 -0.238282,-0.171874 -0.398437,-0.171875 -0.158855,1e-6 -0.293621,0.05729 -0.404297,0.171875 -0.110678,0.113282 -0.166016,0.262371 -0.166016,0.447265"
         style=""
         id="path2890" />
      <path
         d="m 20.875978,35.196371 0.5625,-0.05469 c 0.03385,0.188802 0.102213,0.327474 0.205079,0.416015 0.104165,0.08854 0.244139,0.132813 0.419921,0.132813 0.186197,0 0.326171,-0.03906 0.419922,-0.117188 0.09505,-0.07943 0.142577,-0.171874 0.142578,-0.277344 -1e-6,-0.06771 -0.02018,-0.124999 -0.06055,-0.171875 -0.03907,-0.04818 -0.108075,-0.08984 -0.207032,-0.125 -0.06771,-0.02344 -0.222006,-0.0651 -0.46289,-0.125 -0.309897,-0.07682 -0.527345,-0.171222 -0.652344,-0.283203 -0.175782,-0.15755 -0.263672,-0.349607 -0.263672,-0.576172 0,-0.145831 0.04102,-0.281898 0.123047,-0.408203 0.08333,-0.127601 0.202473,-0.224606 0.357422,-0.291015 0.156249,-0.0664 0.3444,-0.09961 0.564453,-0.09961 0.359373,3e-6 0.629555,0.07878 0.810547,0.236328 0.182289,0.157555 0.277992,0.367841 0.287109,0.63086 l -0.578125,0.02539 c -0.02474,-0.147133 -0.07813,-0.252601 -0.160156,-0.316406 -0.08073,-0.0651 -0.202475,-0.09765 -0.365234,-0.09766 -0.16797,2e-6 -0.299481,0.03451 -0.394532,0.103516 -0.0612,0.04427 -0.0918,0.103517 -0.0918,0.177734 0,0.06771 0.02865,0.125653 0.08594,0.173828 0.07292,0.0612 0.249999,0.125002 0.53125,0.191406 0.281248,0.06641 0.48893,0.135419 0.623047,0.207032 0.135414,0.07031 0.240883,0.167319 0.316406,0.291015 0.07682,0.122397 0.115232,0.27409 0.115234,0.455078 -2e-6,0.164063 -0.04557,0.317709 -0.136718,0.460938 -0.09115,0.143229 -0.220054,0.25 -0.386719,0.320312 -0.166668,0.06901 -0.374351,0.103516 -0.623047,0.103516 -0.36198,0 -0.639975,-0.08333 -0.833984,-0.25 -0.194011,-0.167968 -0.309896,-0.412109 -0.347657,-0.732422"
         style="font-weight:bold"
         id="path2892" />
      <path
         d="m 25.055666,36.128012 0,-0.310547 c -0.07552,0.110677 -0.175132,0.197917 -0.298828,0.261719 -0.122397,0.0638 -0.251954,0.0957 -0.388672,0.0957 -0.139324,0 -0.264324,-0.0306 -0.375,-0.0918 -0.110678,-0.0612 -0.190756,-0.147135 -0.240234,-0.257813 -0.04948,-0.110676 -0.07422,-0.263671 -0.07422,-0.458984 l 0,-1.3125 0.548828,0 0,0.953125 c -10e-7,0.291667 0.0098,0.470704 0.0293,0.537109 0.02083,0.06511 0.05794,0.117188 0.111328,0.15625 0.05338,0.03776 0.121093,0.05664 0.203125,0.05664 0.09375,0 0.177733,-0.02539 0.251953,-0.07617 0.07422,-0.05208 0.124999,-0.115885 0.152344,-0.191406 0.02734,-0.07682 0.04101,-0.263671 0.04102,-0.560547 l 0,-0.875 0.548829,0 0,2.074219 -0.509766,0"
         style="font-weight:bold"
         id="path2894" />
      <path
         d="m 27.936525,34.667074 -0.541015,0.09766 c -0.01823,-0.108071 -0.0599,-0.189451 -0.125,-0.24414 -0.0638,-0.05469 -0.147137,-0.08203 -0.25,-0.08203 -0.13672,1e-6 -0.246095,0.04753 -0.328125,0.142578 -0.08073,0.09375 -0.121095,0.251303 -0.121094,0.472656 -10e-7,0.246095 0.04102,0.419922 0.123047,0.521484 0.08333,0.101563 0.19466,0.152344 0.333984,0.152344 0.104166,0 0.189452,-0.0293 0.25586,-0.08789 0.0664,-0.05989 0.113279,-0.162108 0.140625,-0.30664 l 0.539062,0.0918 c -0.05599,0.247396 -0.163413,0.434245 -0.322266,0.560547 -0.158855,0.126302 -0.371746,0.189453 -0.638671,0.189453 -0.303387,0 -0.545574,-0.0957 -0.726563,-0.28711 -0.179688,-0.191405 -0.269531,-0.456379 -0.269531,-0.794922 0,-0.342446 0.09049,-0.608722 0.271484,-0.798828 0.180989,-0.191404 0.425781,-0.287107 0.734375,-0.287109 0.252603,2e-6 0.453124,0.05469 0.601563,0.164062 0.149737,0.108075 0.257159,0.27344 0.322265,0.496094"
         style="font-weight:bold"
         id="path2896" />
      <path
         d="m 30.155275,34.667074 -0.541015,0.09766 c -0.01823,-0.108071 -0.0599,-0.189451 -0.125,-0.24414 -0.0638,-0.05469 -0.147137,-0.08203 -0.25,-0.08203 -0.13672,1e-6 -0.246095,0.04753 -0.328125,0.142578 -0.08073,0.09375 -0.121095,0.251303 -0.121094,0.472656 -10e-7,0.246095 0.04102,0.419922 0.123047,0.521484 0.08333,0.101563 0.19466,0.152344 0.333984,0.152344 0.104166,0 0.189452,-0.0293 0.25586,-0.08789 0.0664,-0.05989 0.113279,-0.162108 0.140625,-0.30664 l 0.539062,0.0918 c -0.05599,0.247396 -0.163413,0.434245 -0.322266,0.560547 -0.158855,0.126302 -0.371746,0.189453 -0.638671,0.189453 -0.303387,0 -0.545574,-0.0957 -0.726563,-0.28711 -0.179688,-0.191405 -0.269531,-0.456379 -0.269531,-0.794922 0,-0.342446 0.09049,-0.608722 0.271484,-0.798828 0.180989,-0.191404 0.425781,-0.287107 0.734375,-0.287109 0.252603,2e-6 0.453124,0.05469 0.601563,0.164062 0.149737,0.108075 0.257159,0.27344 0.322265,0.496094"
         style="font-weight:bold"
         id="path2898" />
      <path
         d="m 31.766603,35.467855 0.546875,0.0918 c -0.07031,0.200522 -0.181642,0.353516 -0.333984,0.458985 -0.151043,0.104166 -0.340496,0.15625 -0.568359,0.15625 -0.360678,0 -0.627605,-0.117839 -0.800782,-0.353516 -0.136718,-0.188802 -0.205078,-0.427083 -0.205078,-0.714844 0,-0.343748 0.08984,-0.612628 0.269532,-0.80664 0.179687,-0.195311 0.4069,-0.292967 0.68164,-0.292969 0.308593,2e-6 0.552082,0.102216 0.730469,0.306641 0.178383,0.203126 0.26367,0.514975 0.255859,0.935546 l -1.375,0 c 0.0039,0.162762 0.04818,0.289715 0.132813,0.38086 0.08463,0.08984 0.190103,0.134766 0.316406,0.134765 0.08594,10e-7 0.158202,-0.02344 0.216797,-0.07031 0.05859,-0.04687 0.102863,-0.122395 0.132812,-0.226563 m 0.03125,-0.554687 c -0.0039,-0.158853 -0.04492,-0.279295 -0.123046,-0.361328 -0.07813,-0.08333 -0.173179,-0.124998 -0.285157,-0.125 -0.119792,2e-6 -0.218751,0.04362 -0.296875,0.130859 -0.07813,0.08724 -0.116537,0.205731 -0.115234,0.355469 l 0.820312,0"
         style="font-weight:bold"
         id="path2900" />
      <path
         d="m 32.598635,35.536215 0.550781,-0.08398 c 0.02344,0.106772 0.07096,0.188152 0.142578,0.244141 0.07161,0.05469 0.171874,0.08203 0.300781,0.08203 0.141926,10e-7 0.248697,-0.02604 0.320313,-0.07813 0.04818,-0.03646 0.07226,-0.08529 0.07227,-0.146484 -1e-6,-0.04167 -0.01302,-0.07617 -0.03906,-0.103516 -0.02735,-0.02604 -0.08854,-0.05013 -0.183594,-0.07227 -0.442709,-0.09766 -0.723308,-0.186848 -0.841797,-0.267578 -0.164062,-0.111978 -0.246094,-0.267577 -0.246093,-0.466797 -1e-6,-0.179686 0.07096,-0.330728 0.21289,-0.453125 0.141927,-0.122394 0.361979,-0.183592 0.660156,-0.183594 0.283853,2e-6 0.494791,0.04623 0.632813,0.138672 0.138019,0.09245 0.233071,0.229168 0.285156,0.410156 l -0.517578,0.0957 c -0.02214,-0.08073 -0.06445,-0.142576 -0.126953,-0.185547 -0.0612,-0.04297 -0.14909,-0.06445 -0.263672,-0.06445 -0.144532,2e-6 -0.248048,0.02018 -0.310547,0.06055 -0.04167,0.02865 -0.0625,0.06576 -0.0625,0.111328 0,0.03906 0.01823,0.07227 0.05469,0.09961 0.04948,0.03646 0.220051,0.08789 0.511718,0.154296 0.292968,0.06641 0.497395,0.147788 0.613282,0.244141 0.114581,0.09766 0.171873,0.233725 0.171875,0.408203 -2e-6,0.190105 -0.07943,0.353516 -0.238282,0.490235 -0.158855,0.136718 -0.393881,0.205078 -0.705078,0.205078 -0.282553,0 -0.506511,-0.05729 -0.671875,-0.171875 -0.164062,-0.114583 -0.271484,-0.270182 -0.322265,-0.466797"
         style="font-weight:bold"
         id="path2902" />
    </g>
    <text
       xml:space="preserve"
       style="font-size:4px;font-style:normal;font-weight:normal;text-align:start;text-anchor:start;fill:#000000;fill-opacity:1;stroke:none;font-family:Arial;-inkscape-font-specification:Arial"
       x="22.75"
       y="26.25"
       id="text3955"><tspan
         sodipodi:role="line"
         id="tspan3957" /></text>
  </g>
</svg>
