<?xml version="1.0" encoding="UTF-8" standalone="no"?>
<svg id="svg4090" xmlns:rdf="http://www.w3.org/1999/02/22-rdf-syntax-ns#" xmlns="http://www.w3.org/2000/svg" viewBox="0 0 48 48" height="100%" width="100%" version="1.1" xmlns:cc="http://creativecommons.org/ns#" xmlns:xlink="http://www.w3.org/1999/xlink" xmlns:dc="http://purl.org/dc/elements/1.1/">
 <title id="title4100">Delete-files-right</title>
 <defs id="defs4092">
  <linearGradient id="linearGradient2868" y2="23.771" gradientUnits="userSpaceOnUse" x2="16.439" y1="17.407" x1="15.214">
   <stop id="stop3715" stop-color="#f26b6b" stop-opacity="0.2882883" offset="0"/>
   <stop id="stop3721" stop-color="#fca6a6" stop-opacity="0.57657659" offset="0.99"/>
   <stop id="stop3717" stop-color="#FFF" stop-opacity="0" offset="1"/>
  </linearGradient>
  <linearGradient id="linearGradient2870" y2="21.672" gradientUnits="userSpaceOnUse" x2="33.46" gradientTransform="matrix(1,0,0,1.0366985,2.5,-2.4358)" y1="29.479" x1="33.509">
   <stop id="stop3625" stop-color="#353c3e" offset="0"/>
   <stop id="stop3627" stop-color="#69797c" offset="1"/>
  </linearGradient>
  <linearGradient id="linearGradient2872" y2="25.5" gradientUnits="userSpaceOnUse" x2="37.636" gradientTransform="matrix(1,0,0,1.0366985,2.5,-2.4358)" y1="22.412" x1="37.51">
   <stop id="stop4245" stop-color="#e1e1e1" stop-opacity="0" offset="0"/>
   <stop id="stop4251" stop-color="#f0f0f0" stop-opacity="0.31531531" offset="0.99"/>
   <stop id="stop4247" stop-color="#FFF" stop-opacity="0" offset="1"/>
  </linearGradient>
 </defs>
 <metadata id="metadata4095">
  <rdf:RDF>
   <cc:Work rdf:about="">
    <dc:format>image/svg+xml</dc:format>
    <dc:type rdf:resource="http://purl.org/dc/dcmitype/StillImage"/>
    <cc:license rdf:resource="http://creativecommons.org/licenses/publicdomain/"/>
    <dc:title>Delete-files-right</dc:title>
    <dc:date>2011-01-09</dc:date>
    <dc:creator>
     <cc:Agent>
      <dc:title>Peer Sommerlund</dc:title>
     </cc:Agent>
    </dc:creator>
   </cc:Work>
   <cc:License rdf:about="http://creativecommons.org/licenses/publicdomain/">
    <cc:permits rdf:resource="http://creativecommons.org/ns#Reproduction"/>
    <cc:permits rdf:resource="http://creativecommons.org/ns#Distribution"/>
    <cc:permits rdf:resource="http://creativecommons.org/ns#DerivativeWorks"/>
   </cc:License>
  </rdf:RDF>
 </metadata>
 <g id="g2846" stroke-dashoffset="0" stroke-width="1.00000978" stroke-miterlimit="4" transform="translate(-32,0)">
  <path id="o-outline" style="stroke-dasharray:none;" d="m44.448,24a4.4482,4.4996,0,0,1,-8.8964,0,4.4482,4.4996,0,1,1,8.8964,0z" stroke="url(#linearGradient2870)" fill="#d3d7cf"/>
  <path id="o-inner-outline" style="stroke-dasharray:none;" d="m43.428,24a3.4281,3.4637,0,0,1,-6.8562,0,3.4281,3.4637,0,1,1,6.8562,0z" stroke="#dfdfdf" fill="url(#linearGradient2872)"/>
 </g>
 <g id="g2842" transform="translate(18.0037,0)">
  <path id="x-outline" fill="#ef2929" stroke="#a40000" d="m9.4062,12.344-5.1875,5.1875,5.6562,5.6562-6.4688,6.4688,5.1875,5.1875,6.4688-6.4688,6.4062,6.4062,5.1875-5.1875-6.406-6.406,5.594-5.594-5.188-5.188-5.594,5.594-5.6558-5.656z"/>
  <path id="x-inner-outline" opacity="0.63223141" d="m9.3842,13.714-3.7512,3.8175,5.7225,5.59-6.6013,6.5129,3.7954,3.8396,6.4467-6.5792,6.4504,6.5388,3.8617-3.8175-6.4946-6.3621,5.6821-5.6158-3.7954-3.8396-5.6379,5.66-5.6783-5.7446z" stroke="#ff8787" fill="url(#linearGradient2868)"/>
 </g>
</svg>