<?xml version="1.0" encoding="UTF-8" standalone="no"?>
<!-- Created with Inkscape (http://www.inkscape.org/) -->

<svg
   xmlns:dc="http://purl.org/dc/elements/1.1/"
   xmlns:cc="http://creativecommons.org/ns#"
   xmlns:rdf="http://www.w3.org/1999/02/22-rdf-syntax-ns#"
   xmlns:svg="http://www.w3.org/2000/svg"
   xmlns="http://www.w3.org/2000/svg"
   xmlns:xlink="http://www.w3.org/1999/xlink"
   xmlns:sodipodi="http://sodipodi.sourceforge.net/DTD/sodipodi-0.dtd"
   xmlns:inkscape="http://www.inkscape.org/namespaces/inkscape"
   inkscape:export-ydpi="240.00000"
   inkscape:export-xdpi="240.00000"
   inkscape:export-filename="/help-readme.png"
   sodipodi:docname="help-readme.svg"
   inkscape:version="0.48.2 r9819"
   sodipodi:version="0.32"
   id="svg249"
   height="48.000000px"
   width="48.000000px"
   inkscape:output_extension="org.inkscape.output.svg.inkscape"
   version="1.1">
  <defs
     id="defs3">
    <linearGradient
       inkscape:collect="always"
       id="linearGradient4542">
      <stop
         style="stop-color:#000000;stop-opacity:1;"
         offset="0"
         id="stop4544" />
      <stop
         style="stop-color:#000000;stop-opacity:0;"
         offset="1"
         id="stop4546" />
    </linearGradient>
    <linearGradient
       id="linearGradient15662">
      <stop
         id="stop15664"
         offset="0.0000000"
         style="stop-color:#ffffff;stop-opacity:1.0000000;" />
      <stop
         id="stop15666"
         offset="1.0000000"
         style="stop-color:#f8f8f8;stop-opacity:1.0000000;" />
    </linearGradient>
    <radialGradient
       id="aigrd3"
       cx="20.8921"
       cy="64.5679"
       r="5.257"
       fx="20.8921"
       fy="64.5679"
       gradientUnits="userSpaceOnUse">
      <stop
         offset="0"
         style="stop-color:#F0F0F0"
         id="stop15573" />
      <stop
         offset="1.0000000"
         style="stop-color:#9a9a9a;stop-opacity:1.0000000;"
         id="stop15575" />
    </radialGradient>
    <radialGradient
       id="aigrd2"
       cx="20.8921"
       cy="114.5684"
       r="5.256"
       fx="20.8921"
       fy="114.5684"
       gradientUnits="userSpaceOnUse">
      <stop
         offset="0"
         style="stop-color:#F0F0F0"
         id="stop15566" />
      <stop
         offset="1.0000000"
         style="stop-color:#9a9a9a;stop-opacity:1.0000000;"
         id="stop15568" />
    </radialGradient>
    <linearGradient
       id="linearGradient269">
      <stop
         id="stop270"
         offset="0.0000000"
         style="stop-color:#a3a3a3;stop-opacity:1.0000000;" />
      <stop
         id="stop271"
         offset="1.0000000"
         style="stop-color:#4c4c4c;stop-opacity:1.0000000;" />
    </linearGradient>
    <linearGradient
       id="linearGradient259">
      <stop
         id="stop260"
         offset="0.0000000"
         style="stop-color:#fafafa;stop-opacity:1.0000000;" />
      <stop
         id="stop261"
         offset="1.0000000"
         style="stop-color:#bbbbbb;stop-opacity:1.0000000;" />
    </linearGradient>
    <radialGradient
       inkscape:collect="always"
       xlink:href="#linearGradient269"
       id="radialGradient15656"
       gradientUnits="userSpaceOnUse"
       gradientTransform="matrix(0.968273,0.000000,0.000000,1.032767,3.353553,0.646447)"
       cx="8.8244190"
       cy="3.7561285"
       fx="8.8244190"
       fy="3.7561285"
       r="37.751713" />
    <radialGradient
       inkscape:collect="always"
       xlink:href="#linearGradient259"
       id="radialGradient15658"
       gradientUnits="userSpaceOnUse"
       gradientTransform="scale(0.960493,1.041132)"
       cx="33.966679"
       cy="35.736916"
       fx="33.966679"
       fy="35.736916"
       r="86.708450" />
    <radialGradient
       inkscape:collect="always"
       xlink:href="#linearGradient15662"
       id="radialGradient15668"
       gradientUnits="userSpaceOnUse"
       gradientTransform="matrix(0.968273,0.000000,0.000000,1.032767,3.353553,0.646447)"
       cx="8.1435566"
       cy="7.2678967"
       fx="8.1435566"
       fy="7.2678967"
       r="38.158695" />
    <radialGradient
       r="5.256"
       fy="114.5684"
       fx="20.8921"
       cy="114.5684"
       cx="20.8921"
       gradientTransform="matrix(0.229703,0.000000,0.000000,0.229703,4.613529,3.979808)"
       gradientUnits="userSpaceOnUse"
       id="radialGradient2283"
       xlink:href="#aigrd2"
       inkscape:collect="always" />
    <radialGradient
       r="5.257"
       fy="64.5679"
       fx="20.8921"
       cy="64.5679"
       cx="20.8921"
       gradientTransform="matrix(0.229703,0.000000,0.000000,0.229703,4.613529,3.979808)"
       gradientUnits="userSpaceOnUse"
       id="radialGradient2285"
       xlink:href="#aigrd3"
       inkscape:collect="always" />
    <radialGradient
       inkscape:collect="always"
       xlink:href="#linearGradient4542"
       id="radialGradient4548"
       cx="24.306795"
       cy="42.07798"
       fx="24.306795"
       fy="42.07798"
       r="15.821514"
       gradientTransform="matrix(1.000000,0.000000,0.000000,0.284916,0.000000,30.08928)"
       gradientUnits="userSpaceOnUse" />
    <radialGradient
       inkscape:collect="always"
       xlink:href="#linearGradient21644"
       id="radialGradient21650"
       cx="25.125"
       cy="36.75"
       fx="25.125"
       fy="36.75"
       r="15.75"
       gradientTransform="matrix(1,0,0,0.595238,0,14.875)"
       gradientUnits="userSpaceOnUse" />
    <linearGradient
       inkscape:collect="always"
       id="linearGradient21644">
      <stop
         style="stop-color:#000000;stop-opacity:1;"
         offset="0"
         id="stop21646" />
      <stop
         style="stop-color:#000000;stop-opacity:0;"
         offset="1"
         id="stop21648" />
    </linearGradient>
    <radialGradient
       inkscape:collect="always"
       xlink:href="#linearGradient2933"
       id="radialGradient2207"
       cx="26.544321"
       cy="28.458725"
       fx="26.544321"
       fy="28.458725"
       r="22.376116"
       gradientUnits="userSpaceOnUse"
       gradientTransform="matrix(1.238342,0.00595485,-0.00650776,1.351272,-6.992513,-9.744842)" />
    <linearGradient
       id="linearGradient2933">
      <stop
         id="stop2935"
         offset="0"
         style="stop-color:#9cbcde;stop-opacity:1" />
      <stop
         id="stop2937"
         offset="1"
         style="stop-color:#204a87" />
    </linearGradient>
    <radialGradient
       inkscape:collect="always"
       xlink:href="#linearGradient2431"
       id="radialGradient2437"
       cx="-19.515638"
       cy="16.855663"
       fx="-19.515638"
       fy="16.855663"
       r="8.753643"
       gradientTransform="matrix(4.445991,0,0,6.8665,67.25071,-104.6679)"
       gradientUnits="userSpaceOnUse" />
    <linearGradient
       id="linearGradient2431">
      <stop
         style="stop-color:#ffffff;stop-opacity:1;"
         offset="0"
         id="stop2433" />
      <stop
         style="stop-color:#b8b8b8;stop-opacity:1;"
         offset="1"
         id="stop2435" />
    </linearGradient>
    <radialGradient
       r="8.753643"
       fy="16.855663"
       fx="-19.515638"
       cy="16.855663"
       cx="-19.515638"
       gradientTransform="matrix(4.445991,0,0,6.8665,67.25071,-104.6679)"
       gradientUnits="userSpaceOnUse"
       id="radialGradient3147"
       xlink:href="#linearGradient2431"
       inkscape:collect="always" />
    <radialGradient
       inkscape:collect="always"
       xlink:href="#linearGradient4542"
       id="radialGradient3241"
       gradientUnits="userSpaceOnUse"
       gradientTransform="matrix(1,0,0,0.284916,0,30.08928)"
       cx="24.306795"
       cy="42.07798"
       fx="24.306795"
       fy="42.07798"
       r="15.821514" />
    <radialGradient
       inkscape:collect="always"
       xlink:href="#linearGradient259"
       id="radialGradient3243"
       gradientUnits="userSpaceOnUse"
       gradientTransform="scale(0.960493,1.041132)"
       cx="33.966679"
       cy="35.736916"
       fx="33.966679"
       fy="35.736916"
       r="86.708450" />
    <radialGradient
       inkscape:collect="always"
       xlink:href="#linearGradient269"
       id="radialGradient3245"
       gradientUnits="userSpaceOnUse"
       gradientTransform="matrix(0.968273,0,0,1.032767,3.353553,0.646447)"
       cx="8.8244190"
       cy="3.7561285"
       fx="8.8244190"
       fy="3.7561285"
       r="37.751713" />
    <radialGradient
       inkscape:collect="always"
       xlink:href="#linearGradient15662"
       id="radialGradient3247"
       gradientUnits="userSpaceOnUse"
       gradientTransform="matrix(0.968273,0,0,1.032767,3.353553,0.646447)"
       cx="8.1435566"
       cy="7.2678967"
       fx="8.1435566"
       fy="7.2678967"
       r="38.158695" />
    <radialGradient
       inkscape:collect="always"
       xlink:href="#aigrd2"
       id="radialGradient3249"
       gradientUnits="userSpaceOnUse"
       gradientTransform="matrix(0.229703,0,0,0.229703,4.613529,3.979808)"
       cx="20.8921"
       cy="114.5684"
       fx="20.8921"
       fy="114.5684"
       r="5.256" />
    <radialGradient
       inkscape:collect="always"
       xlink:href="#aigrd3"
       id="radialGradient3251"
       gradientUnits="userSpaceOnUse"
       gradientTransform="matrix(0.229703,0,0,0.229703,4.613529,3.979808)"
       cx="20.8921"
       cy="64.5679"
       fx="20.8921"
       fy="64.5679"
       r="5.257" />
  </defs>
  <sodipodi:namedview
     inkscape:window-y="-8"
     inkscape:window-x="-8"
     inkscape:window-height="838"
     inkscape:window-width="1440"
     inkscape:document-units="px"
     inkscape:grid-bbox="true"
     showgrid="false"
     inkscape:current-layer="layer5"
     inkscape:cy="24.318443"
     inkscape:cx="21.753787"
     inkscape:zoom="5.6568542"
     inkscape:pageshadow="2"
     inkscape:pageopacity="0.0"
     borderopacity="0.25490196"
     bordercolor="#666666"
     pagecolor="#ffffff"
     id="base"
     inkscape:showpageshadow="false"
     inkscape:window-maximized="1" />
  <metadata
     id="metadata4">
    <rdf:RDF>
      <cc:Work
         rdf:about="">
        <dc:format>image/svg+xml</dc:format>
        <dc:type
           rdf:resource="http://purl.org/dc/dcmitype/StillImage" />
        <dc:title>Generic Text</dc:title>
        <dc:subject>
          <rdf:Bag>
            <rdf:li>text</rdf:li>
            <rdf:li>plaintext</rdf:li>
            <rdf:li>regular</rdf:li>
            <rdf:li>document</rdf:li>
          </rdf:Bag>
        </dc:subject>
        <cc:license
           rdf:resource="http://creativecommons.org/licenses/by-sa/2.0/" />
        <dc:creator>
          <cc:Agent>
            <dc:title>Jakub Steiner</dc:title>
          </cc:Agent>
        </dc:creator>
        <dc:source>http://jimmac.musichall.cz</dc:source>
      </cc:Work>
      <cc:License
         rdf:about="http://creativecommons.org/licenses/by/2.0/">
        <cc:permits
           rdf:resource="http://web.resource.org/cc/Reproduction" />
        <cc:permits
           rdf:resource="http://web.resource.org/cc/Distribution" />
        <cc:requires
           rdf:resource="http://web.resource.org/cc/Notice" />
        <cc:requires
           rdf:resource="http://web.resource.org/cc/Attribution" />
        <cc:permits
           rdf:resource="http://web.resource.org/cc/DerivativeWorks" />
        <cc:requires
           rdf:resource="http://web.resource.org/cc/ShareAlike" />
      </cc:License>
    </rdf:RDF>
  </metadata>
  <g
     inkscape:groupmode="layer"
     id="layer6"
     inkscape:label="Shadow" />
  <g
     style="display:inline"
     inkscape:groupmode="layer"
     inkscape:label="Base"
     id="layer1" />
  <g
     inkscape:groupmode="layer"
     id="layer5"
     inkscape:label="Text"
     style="display:inline">
    <g
       id="g3207"
       transform="matrix(1.0828567,0,0,1.0828567,-2.1687391,-3.3270557)">
      <path
         transform="translate(0,0.707108)"
         d="m 40.128309,42.07798 c 0,2.489592 -7.083533,4.507806 -15.821514,4.507806 -8.737981,0 -15.821514,-2.018214 -15.821514,-4.507806 0,-2.489592 7.083533,-4.507806 15.821514,-4.507806 8.737981,0 15.821514,2.018214 15.821514,4.507806 z"
         sodipodi:ry="4.5078058"
         sodipodi:rx="15.821514"
         sodipodi:cy="42.07798"
         sodipodi:cx="24.306795"
         id="path3667"
         style="opacity:0.7836257;color:#000000;fill:url(#radialGradient3241);fill-opacity:1;fill-rule:evenodd;stroke:none;stroke-width:2;marker:none;visibility:visible;display:inline;overflow:visible"
         sodipodi:type="arc" />
      <rect
         ry="1.1490486"
         y="3.6464462"
         x="6.6035528"
         height="40.920494"
         width="34.875"
         id="rect15391"
         style="color:#000000;fill:url(#radialGradient3243);fill-opacity:1;fill-rule:nonzero;stroke:url(#radialGradient3245);stroke-width:1;stroke-linecap:round;stroke-linejoin:round;stroke-miterlimit:4;stroke-opacity:1;stroke-dashoffset:0;marker:none;visibility:visible;display:block;overflow:visible" />
      <rect
         rx="0.14904857"
         ry="0.14904857"
         y="4.5839462"
         x="7.6660538"
         height="38.946384"
         width="32.775887"
         id="rect15660"
         style="color:#000000;fill:none;stroke:url(#radialGradient3247);stroke-width:1;stroke-linecap:round;stroke-linejoin:round;stroke-miterlimit:4;stroke-opacity:1;stroke-dashoffset:0;marker:none;visibility:visible;display:block;overflow:visible" />
      <g
         id="g2270"
         transform="translate(0.646447,-0.03798933)"
         style="display:inline">
        <g
           transform="matrix(0.229703,0,0,0.229703,4.967081,4.244972)"
           style="fill:#ffffff;fill-opacity:1;fill-rule:nonzero;stroke:#000000;stroke-miterlimit:4"
           id="g1440">
          <radialGradient
             gradientUnits="userSpaceOnUse"
             fy="114.5684"
             fx="20.892099"
             r="5.256"
             cy="114.5684"
             cx="20.892099"
             id="radialGradient1442">
            <stop
               id="stop1444"
               style="stop-color:#F0F0F0"
               offset="0" />
            <stop
               id="stop1446"
               style="stop-color:#474747"
               offset="1" />
          </radialGradient>
          <path
             id="path1448"
             d="m 23.428,113.07 c 0,1.973 -1.6,3.572 -3.573,3.572 -1.974,0 -3.573,-1.6 -3.573,-3.572 0,-1.974 1.6,-3.573 3.573,-3.573 1.973,0 3.573,1.6 3.573,3.573 z"
             style="stroke:none"
             inkscape:connector-curvature="0" />
          <radialGradient
             gradientUnits="userSpaceOnUse"
             fy="64.567902"
             fx="20.892099"
             r="5.257"
             cy="64.567902"
             cx="20.892099"
             id="radialGradient1450">
            <stop
               id="stop1452"
               style="stop-color:#F0F0F0"
               offset="0" />
            <stop
               id="stop1454"
               style="stop-color:#474747"
               offset="1" />
          </radialGradient>
          <path
             id="path1456"
             d="m 23.428,63.07 c 0,1.973 -1.6,3.573 -3.573,3.573 -1.974,0 -3.573,-1.6 -3.573,-3.573 0,-1.974 1.6,-3.573 3.573,-3.573 1.973,0 3.573,1.6 3.573,3.573 z"
             style="stroke:none"
             inkscape:connector-curvature="0" />
        </g>
        <path
           id="path15570"
           d="m 9.9950109,29.952326 c 0,0.453204 -0.3675248,0.820499 -0.8207288,0.820499 -0.4534338,0 -0.8207289,-0.367524 -0.8207289,-0.820499 0,-0.453434 0.3675248,-0.820729 0.8207289,-0.820729 0.453204,0 0.8207288,0.367525 0.8207288,0.820729 z"
           style="fill:url(#radialGradient3249);fill-rule:nonzero;stroke:none"
           inkscape:connector-curvature="0" />
        <path
           id="path15577"
           d="m 9.9950109,18.467176 c 0,0.453204 -0.3675248,0.820729 -0.8207288,0.820729 -0.4534338,0 -0.8207289,-0.367525 -0.8207289,-0.820729 0,-0.453434 0.3675248,-0.820729 0.8207289,-0.820729 0.453204,0 0.8207288,0.367525 0.8207288,0.820729 z"
           style="fill:url(#radialGradient3251);fill-rule:nonzero;stroke:none"
           inkscape:connector-curvature="0" />
      </g>
      <path
         sodipodi:nodetypes="cc"
         id="path15672"
         d="m 11.505723,5.4942766 0,37.9065924"
         style="fill:none;stroke:#000000;stroke-width:0.98855311;stroke-linecap:butt;stroke-linejoin:miter;stroke-miterlimit:4;stroke-opacity:0.01754384;display:inline"
         inkscape:connector-curvature="0" />
      <path
         sodipodi:nodetypes="cc"
         id="path15674"
         d="m 12.5,5.0205154 0,38.0177126"
         style="fill:none;stroke:#ffffff;stroke-width:1;stroke-linecap:butt;stroke-linejoin:miter;stroke-miterlimit:4;stroke-opacity:0.20467828;display:inline"
         inkscape:connector-curvature="0" />
      <g
         id="g2253"
         transform="matrix(0.909091,0,0,1,2.363628,0)">
        <rect
           ry="0.065390877"
           rx="0.15156493"
           y="9"
           x="15.000002"
           height="1"
           width="22.000004"
           id="rect15686"
           style="color:#000000;fill:#9b9b9b;fill-opacity:0.54970757;fill-rule:nonzero;stroke:none;stroke-width:1;marker:none;visibility:visible;display:block;overflow:visible" />
        <rect
           ry="0.065390877"
           rx="0.15156493"
           y="11"
           x="15.000002"
           height="1"
           width="22.000004"
           id="rect15688"
           style="color:#000000;fill:#9b9b9b;fill-opacity:0.54970757;fill-rule:nonzero;stroke:none;stroke-width:1;marker:none;visibility:visible;display:block;overflow:visible" />
        <rect
           ry="0.065390877"
           rx="0.15156493"
           y="13"
           x="15.000002"
           height="1"
           width="22.000004"
           id="rect15690"
           style="color:#000000;fill:#9b9b9b;fill-opacity:0.54970757;fill-rule:nonzero;stroke:none;stroke-width:1;marker:none;visibility:visible;display:block;overflow:visible" />
        <rect
           ry="0.065390877"
           rx="0.15156493"
           y="15"
           x="15.000002"
           height="1"
           width="22.000004"
           id="rect15692"
           style="color:#000000;fill:#9b9b9b;fill-opacity:0.54970757;fill-rule:nonzero;stroke:none;stroke-width:1;marker:none;visibility:visible;display:block;overflow:visible" />
        <rect
           ry="0.065390877"
           rx="0.15156493"
           y="17"
           x="15.000002"
           height="1"
           width="22.000004"
           id="rect15694"
           style="color:#000000;fill:#9b9b9b;fill-opacity:0.54970757;fill-rule:nonzero;stroke:none;stroke-width:1;marker:none;visibility:visible;display:block;overflow:visible" />
        <rect
           ry="0.065390877"
           rx="0.15156493"
           y="19"
           x="15.000002"
           height="1"
           width="22.000004"
           id="rect15696"
           style="color:#000000;fill:#9b9b9b;fill-opacity:0.54970757;fill-rule:nonzero;stroke:none;stroke-width:1;marker:none;visibility:visible;display:block;overflow:visible" />
        <rect
           ry="0.065390877"
           rx="0.15156493"
           y="21"
           x="15.000002"
           height="1"
           width="22.000004"
           id="rect15698"
           style="color:#000000;fill:#9b9b9b;fill-opacity:0.54970757;fill-rule:nonzero;stroke:none;stroke-width:1;marker:none;visibility:visible;display:block;overflow:visible" />
        <rect
           ry="0.065390877"
           rx="0.15156493"
           y="23"
           x="15.000002"
           height="1"
           width="22.000004"
           id="rect15700"
           style="color:#000000;fill:#9b9b9b;fill-opacity:0.54970757;fill-rule:nonzero;stroke:none;stroke-width:1;marker:none;visibility:visible;display:block;overflow:visible" />
        <rect
           ry="0.065390877"
           rx="0.068204239"
           y="25"
           x="14.999992"
           height="1"
           width="9.9000053"
           id="rect15732"
           style="color:#000000;fill:#9b9b9b;fill-opacity:0.54970757;fill-rule:nonzero;stroke:none;stroke-width:1;marker:none;visibility:visible;display:block;overflow:visible" />
        <rect
           ry="0.065390877"
           rx="0.15156493"
           y="29"
           x="14.999992"
           height="1"
           width="22.000004"
           id="rect15736"
           style="color:#000000;fill:#9b9b9b;fill-opacity:0.54970757;fill-rule:nonzero;stroke:none;stroke-width:1;marker:none;visibility:visible;display:block;overflow:visible" />
        <rect
           ry="0.065390877"
           rx="0.15156493"
           y="31"
           x="14.999992"
           height="1"
           width="22.000004"
           id="rect15738"
           style="color:#000000;fill:#9b9b9b;fill-opacity:0.54970757;fill-rule:nonzero;stroke:none;stroke-width:1;marker:none;visibility:visible;display:block;overflow:visible" />
        <rect
           ry="0.065390877"
           rx="0.15156493"
           y="33"
           x="14.999992"
           height="1"
           width="22.000004"
           id="rect15740"
           style="color:#000000;fill:#9b9b9b;fill-opacity:0.54970757;fill-rule:nonzero;stroke:none;stroke-width:1;marker:none;visibility:visible;display:block;overflow:visible" />
        <rect
           ry="0.065390877"
           rx="0.15156493"
           y="35"
           x="14.999992"
           height="1"
           width="22.000004"
           id="rect15742"
           style="color:#000000;fill:#9b9b9b;fill-opacity:0.54970757;fill-rule:nonzero;stroke:none;stroke-width:1;marker:none;visibility:visible;display:block;overflow:visible" />
        <rect
           ry="0.065390877"
           rx="0.10609552"
           y="37"
           x="14.999992"
           height="1"
           width="15.400014"
           id="rect15744"
           style="color:#000000;fill:#9b9b9b;fill-opacity:0.54970757;fill-rule:nonzero;stroke:none;stroke-width:1;marker:none;visibility:visible;display:block;overflow:visible" />
      </g>
    </g>
    <g
       id="g3114"
       transform="matrix(0.70098464,0,0,0.70098464,16.586229,14.216832)">
      <path
         transform="matrix(1.173803,0,0,0.6,-5.004403,20.325)"
         d="m 40.875,36.75 c 0,5.17767 -7.051515,9.375 -15.75,9.375 -8.698485,0 -15.75,-4.19733 -15.75,-9.375 0,-5.17767 7.051515,-9.375 15.75,-9.375 8.698485,0 15.75,4.19733 15.75,9.375 z"
         sodipodi:ry="9.375"
         sodipodi:rx="15.75"
         sodipodi:cy="36.75"
         sodipodi:cx="25.125"
         id="path21642"
         style="opacity:0.63068183;color:#000000;fill:url(#radialGradient21650);fill-opacity:1;fill-rule:evenodd;stroke:none;stroke-width:1;marker:none;visibility:visible;display:inline;overflow:visible"
         sodipodi:type="arc" />
      <path
         transform="matrix(0.938442,0,0,0.93868,1.564075,1.633906)"
         d="m 45.785164,23.825787 c 0,12.081845 -9.794271,21.876115 -21.876116,21.876115 -12.081845,0 -21.8761157,-9.79427 -21.8761157,-21.876115 0,-12.081846 9.7942707,-21.8761162 21.8761157,-21.8761162 12.081845,0 21.876116,9.7942702 21.876116,21.8761162 z"
         sodipodi:ry="21.876116"
         sodipodi:rx="21.876116"
         sodipodi:cy="23.825787"
         sodipodi:cx="23.909048"
         id="path2093"
         style="fill:url(#radialGradient2207);fill-opacity:1;stroke:#204a87"
         sodipodi:type="arc" />
      <path
         sodipodi:type="arc"
         style="opacity:0.96022728;fill:none;stroke:#ffffff;stroke-width:3.03077435;stroke-miterlimit:4;stroke-opacity:1;stroke-dasharray:none"
         id="path2209"
         sodipodi:cx="23.909048"
         sodipodi:cy="23.825787"
         sodipodi:rx="21.876116"
         sodipodi:ry="21.876116"
         d="m 45.785164,23.825787 c 0,12.081845 -9.794271,21.876115 -21.876116,21.876115 -12.081845,0 -21.8761157,-9.79427 -21.8761157,-21.876115 0,-12.081846 9.7942707,-21.8761162 21.8761157,-21.8761162 12.081845,0 21.876116,9.7942702 21.876116,21.8761162 z"
         transform="matrix(0.855103,0,0,0.855213,3.555288,3.625019)" />
      <path
         transform="matrix(0.849895,0,0,0.835205,41.72981,8.548327)"
         d="m -20.25,5.875 c -1.059019,2.63e-5 -2.147637,0.1232356 -3.28125,0.34375 -1.132925,0.2204283 -2.380162,0.5375125 -3.75,1 a 0.13496364,0.13496364 0 0 0 -0.03125,0 0.13496364,0.13496364 0 0 0 -0.03125,0.03125 0.13496364,0.13496364 0 0 0 -0.03125,0.03125 0.13496364,0.13496364 0 0 0 0,0.03125 0.13496364,0.13496364 0 0 0 0,0.03125 l 0,5.15625 a 0.13496364,0.13496364 0 0 0 0,0.03125 0.13496364,0.13496364 0 0 0 0,0.03125 0.13496364,0.13496364 0 0 0 0.03125,0.03125 0.13496364,0.13496364 0 0 0 0.03125,0.03125 0.13496364,0.13496364 0 0 0 0.03125,0 0.13496364,0.13496364 0 0 0 0.03125,0 0.13496364,0.13496364 0 0 0 0.03125,0 0.13496364,0.13496364 0 0 0 0.03125,0 c 1.142438,-0.719043 2.233352,-1.267138 3.28125,-1.625 1.048141,-0.368756 2.043116,-0.562479 2.9375,-0.5625 0.949218,2.1e-5 1.644925,0.210545 2.15625,0.625 0.508723,0.40209 0.781238,0.98304 0.78125,1.71875 -10e-6,0.480657 -0.144188,0.95141 -0.4375,1.4375 -0.282991,0.487016 -0.740265,1.030495 -1.375,1.59375 L -20.9375,16.75 c -1.201459,1.08049 -1.989243,1.991022 -2.375,2.71875 -0.383113,0.711446 -0.562505,1.519324 -0.5625,2.4375 l 0,0.8125 a 0.13496364,0.13496364 0 0 0 0,0.03125 0.13496364,0.13496364 0 0 0 0,0.03125 0.13496364,0.13496364 0 0 0 0.03125,0.03125 0.13496364,0.13496364 0 0 0 0.03125,0.03125 0.13496364,0.13496364 0 0 0 0.03125,0 0.13496364,0.13496364 0 0 0 0.03125,0 l 6.09375,0 a 0.13496364,0.13496364 0 0 0 0.03125,0 0.13496364,0.13496364 0 0 0 0.03125,0 0.13496364,0.13496364 0 0 0 0.03125,-0.03125 0.13496364,0.13496364 0 0 0 0.03125,-0.03125 0.13496364,0.13496364 0 0 0 0,-0.03125 0.13496364,0.13496364 0 0 0 0,-0.03125 l 0,-0.75 c -1.1e-5,-0.468196 0.14837,-0.892849 0.375,-1.28125 0.222295,-0.391284 0.708073,-0.950359 1.46875,-1.625 l 1.0625,-0.9375 c 1.066588,-0.98231 1.830659,-1.884654 2.28125,-2.75 0.449269,-0.874046 0.687482,-1.87342 0.6875,-2.96875 -1.8e-5,-2.126265 -0.743769,-3.7340276 -2.21875,-4.84375 -1.475197,-1.1210252 -3.60624,-1.6874737 -6.375,-1.6875 z m -3.5625,19.15625 a 0.13496364,0.13496364 0 0 0 -0.03125,0.03125 0.13496364,0.13496364 0 0 0 -0.03125,0.03125 0.13496364,0.13496364 0 0 0 0,0.03125 0.13496364,0.13496364 0 0 0 0,0.03125 l 0,5.84375 a 0.13496364,0.13496364 0 0 0 0,0.03125 0.13496364,0.13496364 0 0 0 0,0.03125 0.13496364,0.13496364 0 0 0 0.03125,0.03125 0.13496364,0.13496364 0 0 0 0.03125,0.03125 0.13496364,0.13496364 0 0 0 0.03125,0 0.13496364,0.13496364 0 0 0 0.03125,0 l 6.09375,0 a 0.13496364,0.13496364 0 0 0 0.03125,0 0.13496364,0.13496364 0 0 0 0.03125,0 0.13496364,0.13496364 0 0 0 0.03125,-0.03125 0.13496364,0.13496364 0 0 0 0.03125,-0.03125 0.13496364,0.13496364 0 0 0 0,-0.03125 0.13496364,0.13496364 0 0 0 0,-0.03125 l 0,-5.84375 a 0.13496364,0.13496364 0 0 0 0,-0.03125 0.13496364,0.13496364 0 0 0 0,-0.03125 0.13496364,0.13496364 0 0 0 -0.03125,-0.03125 0.13496364,0.13496364 0 0 0 -0.03125,-0.03125 0.13496364,0.13496364 0 0 0 -0.03125,0 0.13496364,0.13496364 0 0 0 -0.03125,0 l -6.09375,0 a 0.13496364,0.13496364 0 0 0 -0.03125,0 0.13496364,0.13496364 0 0 0 -0.03125,0 z"
         id="path1554"
         style="font-size:34.15322876px;font-style:normal;font-variant:normal;font-weight:bold;font-stretch:normal;text-align:start;line-height:125%;writing-mode:lr-tb;text-anchor:start;fill:url(#radialGradient3147);fill-opacity:1;stroke:#ffffff;stroke-width:1.09947276px;stroke-linecap:butt;stroke-linejoin:miter;stroke-opacity:0.78612713;font-family:Bitstream Vera Sans"
         xlink:href="#text2215"
         inkscape:original="M -20.25 6 C -21.298341 6.000026 -22.372769 6.1244771 -23.5 6.34375 C -24.627244 6.563073 -25.886043 6.8832479 -27.25 7.34375 L -27.25 12.5 C -26.100219 11.776335 -24.997109 11.236862 -23.9375 10.875 C -22.877902 10.502213 -21.881822 10.312521 -20.96875 10.3125 C -19.999334 10.312521 -19.259834 10.530174 -18.71875 10.96875 C -18.177686 11.396402 -17.906262 12.013726 -17.90625 12.78125 C -17.906261 13.285654 -18.039408 13.776881 -18.34375 14.28125 C -18.636843 14.785651 -19.107484 15.33609 -19.75 15.90625 L -20.84375 16.84375 C -22.038631 17.918325 -22.815518 18.829509 -23.1875 19.53125 C -23.559495 20.22205 -23.750005 21.007137 -23.75 21.90625 L -23.75 22.71875 L -17.65625 22.71875 L -17.65625 21.96875 C -17.656262 21.475338 -17.517981 21.030712 -17.28125 20.625 C -17.044542 20.208345 -16.547785 19.648586 -15.78125 18.96875 L -14.71875 18.03125 C -13.659161 17.055386 -12.908389 16.156813 -12.46875 15.3125 C -12.029144 14.457253 -11.781268 13.480828 -11.78125 12.40625 C -11.781268 10.311973 -12.525902 8.7417969 -13.96875 7.65625 C -15.41163 6.559783 -17.499549 6.0000261 -20.25 6 z M -23.75 25.15625 L -23.75 31 L -17.65625 31 L -17.65625 25.15625 L -23.75 25.15625 z "
         inkscape:radius="0.13495015"
         sodipodi:type="inkscape:offset"
         inkscape:href="#text2215" />
    </g>
  </g>
</svg>
